<?xml version="1.0" encoding="UTF-8"?>
<svg version="1.1" xmlns="http://www.w3.org/2000/svg" width="2398" height="820">
<path d="M0 0 C0.86367188 -0.00386719 1.72734375 -0.00773437 2.6171875 -0.01171875 C7.51843463 -0.00427005 12.16818028 0.29781347 17 1.125 C14.77634729 3.6130585 12.79570244 4.82943604 9.7109375 6.0703125 C8.85999512 6.42037354 8.00905273 6.77043457 7.13232422 7.13110352 C5.76744873 7.68495728 5.76744873 7.68495728 4.375 8.25 C-9.63914394 14.10991247 -23.14446629 20.48771866 -35 30.125 C-35.86109375 30.82238281 -36.7221875 31.51976563 -37.609375 32.23828125 C-51.44435135 44.03993532 -59.79674235 59.42010784 -61.28735352 77.63671875 C-61.40052889 81.24241166 -61.41650872 84.83032017 -61.375 88.4375 C-61.36557373 89.71061035 -61.35614746 90.9837207 -61.34643555 92.29541016 C-61.19752146 101.59215833 -60.49660814 110.15533123 -58 119.125 C-57.6596875 120.36636719 -57.319375 121.60773438 -56.96875 122.88671875 C-52.81056388 136.55535082 -46.37811086 148.33918117 -37 159.125 C-36.54496094 159.723125 -36.08992188 160.32125 -35.62109375 160.9375 C-24.31788176 175.51358233 -5.78661506 183.84252428 11 190.125 C12.66849898 190.7870675 14.33594934 191.45183017 16 192.125 C16 192.455 16 192.785 16 193.125 C15.3024057 193.23473648 14.6048114 193.34447296 13.88607788 193.45753479 C7.15365257 194.51864323 0.42305206 195.59075661 -6.30587196 196.67382908 C-9.76132214 197.22965123 -13.21724743 197.78188914 -16.67480469 198.32446289 C-59.90484602 205.11683715 -102.15364793 215.29419231 -141 236.125 C-142.15113281 236.73601562 -143.30226562 237.34703125 -144.48828125 237.9765625 C-160.02032913 246.52534536 -173.98970195 257.11841869 -187 269.125 C-187.50756836 269.59260742 -188.01513672 270.06021484 -188.53808594 270.54199219 C-221.29719748 301.10102908 -244.05683018 347.16360791 -246 392.125 C-246.10975302 399.66009726 -245.99838415 407.19932276 -245.90405273 414.73413086 C-245.686033 433.39971004 -246.54428911 449.0875538 -260 463.2265625 C-270.07614602 472.83488745 -282.27168859 476.68144486 -296.01171875 476.3671875 C-303.50374459 475.75999063 -309.6912347 473.73855917 -315.1328125 468.40625 C-337.73691783 440.7895188 -338.44070401 389.58356018 -338.375 355.375 C-338.37445618 354.3039502 -338.37391235 353.23290039 -338.37335205 352.12939453 C-338.2721899 308.61510067 -329.40344111 265.31265956 -310 226.125 C-309.55350098 225.20509277 -309.10700195 224.28518555 -308.64697266 223.33740234 C-298.53657427 202.63004475 -286.34648132 183.1774217 -272 165.125 C-271.28972656 164.22394531 -270.57945312 163.32289063 -269.84765625 162.39453125 C-265.02625606 156.3868463 -259.93389777 150.67998138 -254.6953125 145.0390625 C-252.222608 142.36567473 -249.79373619 139.65963167 -247.375 136.9375 C-241.30982004 130.19120358 -234.96499969 123.8243907 -228.07421875 117.921875 C-225.79842282 115.9503757 -223.59077333 113.91365605 -221.375 111.875 C-215.1736911 106.28815006 -208.61777366 101.20315645 -202 96.125 C-201.38914551 95.65191406 -200.77829102 95.17882812 -200.14892578 94.69140625 C-183.25305246 81.62443794 -165.36141958 70.01595844 -147 59.125 C-145.89060059 58.45815186 -145.89060059 58.45815186 -144.75878906 57.77783203 C-112.59813679 38.50483524 -78.23091544 23.16096564 -43.375 9.5 C-42.73468842 9.24720276 -42.09437683 8.99440552 -41.43466187 8.73394775 C-27.72435135 3.34268903 -14.76619256 -0.06611728 0 0 Z " fill="#625F5E" transform="translate(378,59.875)"/>
<path d="M0 0 C20.45373679 11.18919429 40.28721468 24.84902362 57.26147461 40.86376953 C59.43611715 42.91414679 61.64584622 44.87742196 63.92163086 46.81298828 C71.88048736 53.74809146 79.06351322 61.26620219 85.62866211 69.52783203 C87.88997933 72.35150835 90.24468734 75.07541197 92.60913086 77.81298828 C103.00430248 90.27749422 111.9476196 104.15316282 119.85913086 118.31298828 C120.3111084 119.12123047 120.76308594 119.92947266 121.22875977 120.76220703 C155.98515777 183.61384362 167.12041656 255.8919281 167.04663086 326.93798828 C167.04602661 328.01602722 167.04542236 329.09406616 167.0447998 330.20477295 C166.9926959 364.57111091 163.89689444 398.23295288 157.79663086 432.06298828 C157.67284058 432.75318054 157.54905029 433.4433728 157.42150879 434.15447998 C154.12654794 452.37293597 150.53151924 463.46094321 136.85913086 476.31298828 C135.50707961 472.25683452 136.69448747 469.18975612 137.73413086 465.18798828 C139.20088969 459.23441666 140.5898751 453.4609948 140.85913086 447.31298828 C140.91069336 446.44158203 140.96225586 445.57017578 141.01538086 444.67236328 C141.61534396 425.97351336 135.81293176 407.30923663 123.19897461 393.27392578 C106.85342793 375.88890793 81.41335627 360.68713649 57.08276367 359.13598633 C23.36260143 358.45188022 -2.99107122 367.86478074 -29.14086914 389.31298828 C-30.14086914 387.31298828 -30.14086914 387.31298828 -29.54272461 385.05517578 C-29.20128418 384.10900391 -28.85984375 383.16283203 -28.50805664 382.18798828 C-27.92689087 380.56570313 -27.92689087 380.56570313 -27.33398438 378.91064453 C-26.89900635 377.72341797 -26.46402832 376.53619141 -26.01586914 375.31298828 C-25.56864502 374.07419922 -25.1214209 372.83541016 -24.66064453 371.55908203 C-21.63008753 363.19892479 -18.45380922 354.89814957 -15.2409668 346.60668945 C-2.2342024 313.03512427 9.63941764 278.64565769 10.85913086 242.31298828 C10.8863623 241.51650879 10.91359375 240.7200293 10.94165039 239.89941406 C12.46048857 188.15383914 -2.5392212 135.61950746 -37.14086914 96.31298828 C-38.00325195 95.31783203 -38.86563477 94.32267578 -39.75415039 93.29736328 C-45.67711808 86.57233806 -52.04750868 80.79865029 -59.14086914 75.31298828 C-60.07930664 74.53568359 -61.01774414 73.75837891 -61.98461914 72.95751953 C-72.9342653 64.08209758 -85.25642825 57.21898652 -97.84790039 50.93798828 C-111.70610915 44.01117552 -123.49540131 35.70090249 -129.16040039 20.59423828 C-133.1081126 7.75966708 -131.03915702 -3.99336711 -125.32836914 -15.99951172 C-121.29660427 -23.55044544 -117.20866579 -29.26667583 -109.17211914 -32.78857422 C-76.63890491 -42.4311506 -27.97258855 -14.8527556 0 0 Z " fill="#FF822D" transform="translate(510.140869140625,155.68701171875)"/>
<path d="M0 0 C4.90823939 0.11686284 7.74357312 1.75085375 11.23828125 4.97265625 C13.99187399 8.14142484 15.83846485 11.73166113 17.86328125 15.39453125 C27.17348195 31.64264396 40.04959291 46.66345552 52 61 C52.82242188 62.00933594 53.64484375 63.01867187 54.4921875 64.05859375 C60.79528753 71.69281877 67.5837644 78.79309004 74.5625 85.8125 C75.42456055 86.68374512 76.28662109 87.55499023 77.17480469 88.45263672 C83.13914588 94.38874835 89.38860821 99.79739316 96 105 C96.64380615 105.50845459 97.2876123 106.01690918 97.95092773 106.54077148 C138.27636327 137.88571111 187.48521953 154.80399915 238.70703125 149.50390625 C243.51750767 148.88540977 248.25753613 148.0097115 253 147 C254.19979492 146.75056641 254.19979492 146.75056641 255.42382812 146.49609375 C276.83093958 141.91975163 296.52844287 133.89144855 315.6796875 123.44921875 C332.12386332 114.53232975 348.95132275 106.45703188 368 112 C380.70077506 116.40639135 391.07024608 127.15772981 397 139 C400.34407665 146.30951889 400.52340092 152.36368194 398 160 C392.43101086 173.66933699 378.26973128 184.16159473 367 193 C365.88206665 193.91677923 364.76629801 194.83620248 363.65234375 195.7578125 C300.55801715 247.66282835 219.84954436 272.25588413 138.53051758 265.17529297 C95.4346139 260.8238278 54.19004948 248.63657144 14.98144531 230.38574219 C12.29499443 229.13711009 9.59941569 227.91209512 6.8984375 226.6953125 C-5.83254889 220.89676765 -17.91699714 214.03270093 -30 207 C-31.47098145 206.14704346 -31.47098145 206.14704346 -32.97167969 205.27685547 C-43.5204868 199.14921397 -53.98600571 192.97869664 -64 186 C-65.47511555 184.98807004 -66.95039048 183.9763724 -68.42578125 182.96484375 C-91.79806494 166.85619676 -113.99034584 149.29216195 -135.27294922 130.51855469 C-136.93520565 129.05697213 -138.60961046 127.61036569 -140.28515625 126.1640625 C-149.58733104 118.02574524 -159.03562999 108.00702871 -163 96 C-162.67 95.01 -162.34 94.02 -162 93 C-160.83597656 93.94359375 -160.83597656 93.94359375 -159.6484375 94.90625 C-138.48612386 111.78638522 -114.48406768 122.51355192 -87 120 C-60.76839441 116.59017123 -35.28465956 100.51805304 -19 80 C-16.45261462 76.44307586 -14.17963775 72.79204446 -12 69 C-11.47535156 68.11054687 -10.95070312 67.22109375 -10.41015625 66.3046875 C-2.79733249 52.39627157 0.21222098 36.3533217 0.125 20.625 C0.1237915 19.79371582 0.12258301 18.96243164 0.12133789 18.10595703 C0.08472072 12.34523081 -0.35361061 6.72516321 -1 1 C-0.67 0.67 -0.34 0.34 0 0 Z " fill="#625F5E" transform="translate(184,481)"/>
<path d="M0 0 C1.16992996 -0.0065712 2.33985992 -0.0131424 3.54524231 -0.01991272 C7.41094025 -0.0395966 11.2765994 -0.0512983 15.14233398 -0.0612793 C16.4799546 -0.06533132 17.81757502 -0.06944837 19.15519524 -0.07362938 C25.4444295 -0.09266076 31.73365221 -0.10689399 38.0229097 -0.11524135 C45.24993292 -0.12499516 52.47664836 -0.15127433 59.70356327 -0.19174224 C65.31063754 -0.22204716 70.91762431 -0.23672388 76.52477878 -0.24002236 C79.86370478 -0.24235725 83.20204137 -0.25313107 86.54092598 -0.27648354 C90.27622705 -0.30098203 94.01073597 -0.2998897 97.74609375 -0.29296875 C98.83071899 -0.30577881 99.91534424 -0.31858887 101.03283691 -0.33178711 C115.67612748 -0.23361415 128.08256387 4.94741907 138.63842773 14.98950195 C142.61082235 19.14986477 146.61183895 23.57764526 148.32592773 29.17700195 C147.9283293 33.52590308 146.5399255 35.43583471 143.43139648 38.42700195 C142.24513672 39.5871582 142.24513672 39.5871582 141.03491211 40.77075195 C140.20282227 41.56481445 139.37073242 42.35887695 138.51342773 43.17700195 C136.87973213 44.7580805 135.2481537 46.34135016 133.61889648 47.92700195 C132.89210693 48.6230957 132.16531738 49.31918945 131.41650391 50.03637695 C129.23199603 52.18706245 129.23199603 52.18706245 127.25683594 54.8840332 C125.32592773 57.17700195 125.32592773 57.17700195 122.13842773 58.11450195 C116.87460268 56.82011874 115.01432738 53.80177719 111.82983398 49.55981445 C106.37430998 44.36813014 98.41255245 44.88276815 91.2890625 44.90234375 C90.3172403 44.89723282 89.34541809 44.89212189 88.34414673 44.88685608 C85.15181207 44.87302765 81.95969492 44.87391165 78.76733398 44.8762207 C76.53588278 44.87233033 74.30443231 44.86799496 72.07298279 44.86323547 C67.4036112 44.85578796 62.73431525 44.8560541 58.06494141 44.86132812 C52.09547614 44.86712352 46.12632108 44.85018266 40.15690708 44.82698345 C35.55081894 44.81221885 30.94480505 44.81137809 26.33869743 44.81449318 C24.13838016 44.81398143 21.93805856 44.80877136 19.73776436 44.79868126 C16.65570289 44.78628016 13.57424011 44.79313056 10.4921875 44.8046875 C9.59268875 44.79704376 8.69319 44.78940002 7.76643372 44.78152466 C2.04987403 44.82866296 -3.57817958 45.37678813 -8.67407227 48.17700195 C-13.66088727 55.27766593 -12.08807538 66.23436027 -12.03735352 74.5480957 C-12.03683384 76.23763529 -12.03735569 77.92717548 -12.03886414 79.61671448 C-12.03877478 83.14609892 -12.02842256 86.6752532 -12.01025391 90.20458984 C-11.98758574 94.70427071 -11.98702362 99.20361543 -11.99377155 103.70333767 C-11.99713068 107.18914215 -11.99044475 110.67487152 -11.98064232 114.1606617 C-11.97682216 115.81867135 -11.97562872 117.4766894 -11.97722816 119.13470268 C-12.5070557 133.79533852 -12.5070557 133.79533852 -7.67407227 147.17700195 C2.22059313 150.54327092 13.93476182 149.46837969 24.25561523 149.44262695 C26.17790781 149.44397763 28.10020004 149.44592149 30.02249146 149.44842529 C34.03496581 149.45135905 38.04735059 149.44713648 42.05981445 149.43774414 C47.16545204 149.42636622 52.27087888 149.43290981 57.37650871 149.44488907 C61.34198551 149.45216835 65.30741361 149.44979183 69.272892 149.44463348 C71.15367789 149.4433129 73.0344684 149.4448879 74.91524887 149.44959259 C93.29974287 150.32238898 93.29974287 150.32238898 110.32592773 145.17700195 C113.14619099 140.94660707 113.42773474 137.09206733 113.64233398 132.0949707 C113.68422852 131.16362305 113.72612305 130.23227539 113.76928711 129.27270508 C113.80860352 128.31299805 113.84791992 127.35329102 113.88842773 126.36450195 C113.93161133 125.38545898 113.97479492 124.40641602 114.01928711 123.39770508 C114.12495033 120.99093168 114.22705101 118.58406212 114.32592773 116.17700195 C113.49320847 116.18366379 112.6604892 116.19032562 111.80253601 116.19718933 C103.95979685 116.25726889 96.11713483 116.30296023 88.27421856 116.33243847 C84.24195741 116.34810297 80.2098862 116.36935526 76.17773438 116.40332031 C72.28738853 116.43588625 68.39722554 116.45384906 64.50675392 116.46163368 C63.0215549 116.46718221 61.53636604 116.47801706 60.05124474 116.49419212 C57.97290701 116.51593046 55.89532742 116.51897051 53.81689453 116.51757812 C52.63330856 116.52423996 51.4497226 116.53090179 50.23027039 116.5377655 C47.32592773 116.17700195 47.32592773 116.17700195 45.44450378 114.85762024 C43.57807408 112.05338007 43.9360722 109.30132183 43.92749023 105.98950195 C43.92462006 105.29058838 43.92174988 104.5916748 43.91879272 103.87158203 C43.91675348 102.39558094 43.92227371 100.91955274 43.93481445 99.44360352 C43.95087194 97.18485057 43.93496303 94.92788677 43.91577148 92.66918945 C43.91775394 91.23428967 43.92159768 89.799391 43.92749023 88.36450195 C43.93087402 87.05868164 43.93425781 85.75286133 43.93774414 84.4074707 C44.32592773 81.17700195 44.32592773 81.17700195 45.57739258 79.49890709 C47.7744059 77.83794924 48.95417359 77.80004473 51.69067383 77.79605103 C52.58236267 77.78759155 53.47405151 77.77913208 54.39276123 77.77041626 C55.36844055 77.77648895 56.34411987 77.78256165 57.34936523 77.78881836 C58.89361176 77.78093292 58.89361176 77.78093292 60.46905518 77.77288818 C63.87983266 77.75965975 67.29014531 77.76843656 70.70092773 77.77856445 C73.06600026 77.77654454 75.43107219 77.7736338 77.79614258 77.76986694 C82.756001 77.76543973 87.71569749 77.77188758 92.67553711 77.78588867 C99.04146209 77.80298059 105.40700765 77.79314156 111.7729187 77.77517128 C116.6575813 77.76434429 121.54215356 77.76777483 126.42681885 77.77555466 C128.77443486 77.77755966 131.12205901 77.77508692 133.46966553 77.768116 C136.74749562 77.76051952 140.02470641 77.7720809 143.30249023 77.78881836 C144.27816956 77.78274567 145.25384888 77.77667297 146.25909424 77.77041626 C147.15078308 77.77887573 148.04247192 77.78733521 148.96118164 77.79605103 C149.73620026 77.7971821 150.51121887 77.79831318 151.3097229 77.79947853 C153.92220847 78.28865229 154.79013438 79.02237736 156.32592773 81.17700195 C156.70624447 83.23726559 156.70624447 83.23726559 156.71360779 85.64891052 C156.72351242 86.56439667 156.73341705 87.47988281 156.74362183 88.42311096 C156.73912018 89.42527145 156.73461853 90.42743195 156.72998047 91.45996094 C156.73684372 92.51711304 156.74370697 93.57426514 156.7507782 94.66345215 C156.76911744 98.16680232 156.7651984 101.66970771 156.75952148 105.1730957 C156.7640799 107.60303392 156.76938445 110.03297085 156.77540588 112.46290588 C156.78435105 117.55979647 156.78189785 122.65653048 156.77197266 127.75341797 C156.76048228 134.29195138 156.78068902 140.82994481 156.80988979 147.36840725 C156.82821736 152.38779648 156.82796616 157.40705551 156.82225227 162.4264698 C156.82209863 164.83746155 156.82817809 167.24846188 156.84054375 169.65942192 C156.85538615 173.0281774 156.84482539 176.39592496 156.82763672 179.76464844 C156.84213867 181.26485283 156.84213867 181.26485283 156.85693359 182.79536438 C156.78503796 189.50893705 156.78503796 189.50893705 154.52375793 192.7993927 C151.22904479 194.86453281 148.0392392 194.67183653 144.27905273 194.56762695 C143.50785095 194.56196716 142.73664917 194.55630737 141.94207764 194.55047607 C139.48605494 194.52813785 137.03150718 194.47794958 134.57592773 194.42700195 C132.9079801 194.4069335 131.24000953 194.38868332 129.57202148 194.37231445 C125.4894245 194.32828188 121.40792592 194.25927478 117.32592773 194.17700195 C116.99592773 190.21700195 116.66592773 186.25700195 116.32592773 182.17700195 C115.43905273 183.06387695 114.55217773 183.95075195 113.63842773 184.86450195 C104.81267748 192.48099808 93.29793734 194.32367581 82.0637207 194.33813477 C80.67462997 194.34558212 80.67462997 194.34558212 79.25747681 194.35317993 C76.19434864 194.36777651 73.13127247 194.37460368 70.06811523 194.38012695 C69.01522434 194.38295433 67.96233345 194.38578171 66.87753677 194.38869476 C61.29246012 194.40368678 55.70740924 194.41291283 50.12231445 194.41723633 C44.40150472 194.42268376 38.6809375 194.44663214 32.96020317 194.47520828 C28.52270876 194.4940154 24.08527027 194.49905003 19.64773941 194.5005722 C17.54220395 194.50356481 15.43666864 194.51147572 13.33117294 194.52475739 C-29.55295939 194.77569634 -29.55295939 194.77569634 -44.67407227 180.17700195 C-58.13061603 164.86231629 -56.99064594 141.39930147 -56.97485352 122.25512695 C-56.97875358 120.25941888 -56.98309087 118.26371161 -56.98783875 116.26800537 C-56.99525176 112.10613299 -56.99504604 107.94434551 -56.98974609 103.7824707 C-56.98396297 98.50359275 -57.00087894 93.22506698 -57.02409077 87.9462471 C-57.03897204 83.82959024 -57.03968038 79.71301537 -57.03658104 75.59633636 C-57.03708721 73.65269016 -57.04218914 71.70903849 -57.05239296 69.76541901 C-57.1455733 49.53709439 -56.93039533 27.61739443 -41.97875977 12.2980957 C-30.52405024 1.75587999 -14.99380171 0.03669192 0 0 Z " fill="#000000" transform="translate(1340.674072265625,277.822998046875)"/>
<path d="M0 0 C0.82193344 -0.0417334 1.64386688 -0.0834668 2.4907074 -0.12646484 C3.3781514 -0.1517627 4.2655954 -0.17706055 5.17993164 -0.203125 C6.10165665 -0.22971191 7.02338165 -0.25629883 7.97303772 -0.28369141 C9.92893239 -0.32958645 11.88507029 -0.36595004 13.84130859 -0.39355469 C15.82516799 -0.43296376 17.80868521 -0.50089364 19.79052734 -0.59863281 C37.10492456 -1.45023177 37.10492456 -1.45023177 42.78857422 3.3425293 C45.4215206 5.99941874 47.62686638 8.87874086 49.74449158 11.95552063 C51.48556923 14.34795682 53.57339632 16.32833555 55.71508789 18.359375 C58.3564638 20.96294946 60.86832154 23.60252076 63.27758789 26.421875 C66.16473589 29.79245243 69.24505787 32.93191364 72.40258789 36.046875 C76.12105265 39.71534359 79.63926979 43.47836723 83.02758789 47.453125 C85.38604063 50.08673056 87.88704469 52.56513718 90.40258789 55.046875 C93.49750291 58.10025451 96.52193066 61.17011185 99.34008789 64.484375 C102.35611593 68.02366574 105.59706367 71.28182245 108.90258789 74.546875 C112.80154472 78.39809437 116.51083086 82.31109229 120.06274414 86.48828125 C122.86025656 89.61840662 125.86883295 92.53373158 128.85595703 95.48071289 C132.08257442 98.68073271 135.0818925 101.99759772 138.02758789 105.453125 C140.38603781 108.08672741 142.88701426 110.56516974 145.40258789 113.046875 C149.78746912 117.38343798 153.90979056 121.85094355 157.90258789 126.546875 C158.23258789 126.876875 158.56258789 127.206875 158.90258789 127.546875 C158.90617042 126.60154215 158.90617042 126.60154215 158.90982533 125.63711166 C158.96895029 110.30545416 159.04448409 94.97397872 159.1383028 79.64249802 C159.1832767 72.22831391 159.22268761 64.81417801 159.24902344 57.39990234 C159.27199071 50.937938 159.3053743 44.47612601 159.35128945 38.01428246 C159.37523908 34.59246318 159.39395634 31.17079494 159.4002018 27.74889374 C159.40978984 23.92969678 159.43778678 20.11105381 159.47021484 16.29199219 C159.46877975 15.15623245 159.46734467 14.02047272 159.46586609 12.85029602 C159.47840424 11.80985641 159.49094238 10.76941681 159.50386047 9.69744873 C159.50846944 8.79409161 159.5130784 7.89073448 159.51782703 6.9600029 C159.98648079 4.02071882 160.80738924 2.64671149 162.90258789 0.546875 C165.79191831 0.15397042 168.29538945 0.00941546 171.18383789 0.05078125 C171.99373169 0.04932602 172.80362549 0.04787079 173.63806152 0.04637146 C175.34948323 0.04803061 177.06091982 0.05959388 178.7722168 0.08032227 C181.39314084 0.10927066 184.01204165 0.10093417 186.63305664 0.08789062 C188.2958269 0.09412832 189.95859076 0.1025195 191.62133789 0.11328125 C192.40577271 0.11034561 193.19020752 0.10740997 193.99841309 0.10438538 C199.33820074 0.19705834 199.33820074 0.19705834 201.60936928 1.60476685 C203.58491518 4.57156903 203.31552922 7.57944859 203.28353882 11.0246582 C203.28821879 11.79281262 203.29289876 12.56096704 203.29772055 13.35239887 C203.30971619 15.93432536 203.3001957 18.51572553 203.29077148 21.09765625 C203.29483516 22.94542756 203.30017589 24.79319644 203.30670166 26.64096069 C203.32040531 31.66567795 203.31506404 36.69021091 203.3055644 41.71493149 C203.29798358 46.96661638 203.30500902 52.21828521 203.3097229 57.4699707 C203.31518506 66.29023073 203.30797677 75.11041546 203.29370117 83.93066406 C203.27737379 94.13665329 203.28266198 104.34246274 203.29918039 114.54844761 C203.31278214 123.30178907 203.31472134 132.05507633 203.30686438 140.80842495 C203.30218065 146.04049566 203.3015822 151.2724818 203.31147385 156.50454712 C203.32012218 161.42277085 203.31416073 166.34076218 203.29679108 171.25896072 C203.2928148 173.06698851 203.29397968 174.87503576 203.30057907 176.68305588 C203.30873981 179.14533441 203.29853993 181.60686154 203.28353882 184.0690918 C203.29357707 185.15016189 203.29357707 185.15016189 203.30381811 186.25307178 C203.27008533 189.09459823 203.21261043 191.08073013 201.61489296 193.48303223 C198.5294388 195.40000262 194.92867291 195.12204042 191.39477539 195.19140625 C190.55471954 195.21087814 189.7146637 195.23035004 188.84915161 195.25041199 C187.06892513 195.28313393 185.2885157 195.30693396 183.50805664 195.32250977 C180.80540315 195.35899945 178.11103089 195.46480365 175.41040039 195.57226562 C162.81383965 195.8428288 162.81383965 195.8428288 157.90405273 192.51367188 C155.63753038 189.97701589 153.77901131 187.37981926 151.90258789 184.546875 C150.70636215 183.26028238 149.47637547 182.00383061 148.20727539 180.7890625 C147.64081299 180.230979 147.07435059 179.67289551 146.49072266 179.09790039 C145.92538818 178.54481201 145.36005371 177.99172363 144.77758789 177.421875 C137.60106153 170.32878559 137.60106153 170.32878559 134.46508789 166.609375 C131.01220175 162.52066327 127.20181371 158.80953024 123.40258789 155.046875 C119.05894061 150.74499858 114.84210029 146.44379597 110.90258789 141.765625 C107.27185837 137.73778444 103.36537462 133.97149085 99.49438477 130.17578125 C96.34756311 127.07161724 93.31922798 123.92805635 90.43383789 120.578125 C86.79192298 116.3544869 82.8822449 112.45029337 78.90258789 108.546875 C74.28432836 104.01708787 69.87061509 99.41728016 65.64868164 94.515625 C62.71630697 91.20932336 59.55678397 88.13965194 56.40258789 85.046875 C51.89444063 80.58726175 47.45176237 76.13994938 43.39477539 71.2578125 C41.3438433 68.90622021 39.11459698 66.74631841 36.90258789 64.546875 C36.90112133 65.1925581 36.89965477 65.8382412 36.89814377 66.50349045 C36.86110031 82.21071022 36.80211863 97.91767095 36.71868515 113.62470627 C36.67886701 121.22051093 36.64648871 128.81621158 36.6315918 136.41210938 C36.61858955 143.03231492 36.59166178 149.65229186 36.54797482 156.27236867 C36.52532744 159.77806949 36.50967914 163.28348802 36.51070404 166.78926849 C36.51158706 170.70187099 36.48138161 174.61389553 36.44848633 178.52636719 C36.45603188 180.27208511 36.45603188 180.27208511 36.46372986 182.05307007 C36.44286064 183.65159317 36.44286064 183.65159317 36.42156982 185.28240967 C36.41603907 186.6706299 36.41603907 186.6706299 36.41039658 188.08689499 C35.73967055 191.33609626 34.49508517 192.53306397 31.90258789 194.546875 C29.13116907 194.94493787 26.76454366 195.10872889 23.99633789 195.078125 C23.2346228 195.0819519 22.47290771 195.08577881 21.68811035 195.08972168 C20.08104121 195.09243813 18.47392765 195.08509544 16.86694336 195.06835938 C14.41037202 195.04694286 11.95672478 195.06816678 9.50024414 195.09375 C7.93643562 195.09110667 6.37262891 195.08598158 4.80883789 195.078125 C4.07644897 195.08622192 3.34406006 195.09431885 2.58947754 195.10266113 C-0.58995798 195.04435192 -2.66918814 194.85133933 -5.2913065 192.98703098 C-7.7168605 189.70996343 -7.65138328 186.90871003 -7.59861755 182.98680115 C-7.60415195 182.22187585 -7.60968635 181.45695056 -7.61538845 180.66884571 C-7.62901043 178.10368917 -7.61401801 175.53950302 -7.59912109 172.97436523 C-7.60290369 171.13629747 -7.60840324 169.29823254 -7.61549377 167.46017456 C-7.62947247 162.46644672 -7.6182621 157.47306248 -7.60178256 152.47935367 C-7.58794963 147.25837341 -7.59439005 142.03741346 -7.59791565 136.81642151 C-7.60061892 128.04918874 -7.58713125 119.28209279 -7.56396484 110.51489258 C-7.53734611 100.37079135 -7.53561021 90.2269188 -7.54735321 80.08279461 C-7.55812193 70.33309587 -7.55195158 60.58348006 -7.53779793 50.83378792 C-7.53203109 46.6803193 -7.53212626 42.52691123 -7.53686333 38.3734417 C-7.54162597 33.48555957 -7.53156111 28.59792875 -7.50990868 23.71009445 C-7.50433119 21.91335841 -7.50388428 20.11659826 -7.50886154 18.31986046 C-7.51479121 15.87294726 -7.50235463 13.42680849 -7.48509216 10.97996521 C-7.49110221 10.26382488 -7.49711225 9.54768455 -7.50330442 8.809843 C-7.46584788 5.90338427 -7.42912723 4.00418499 -5.69271088 1.610322 C-3.69582117 0.27916923 -2.39256021 0.10800465 0 0 Z " fill="#000000" transform="translate(1050.097412109375,277.453125)"/>
<path d="M0 0 C1.47283401 1.28451741 2.94489066 2.57147462 4.36499023 3.9140625 C5.67114325 5.13436597 7.02069255 6.30833973 8.38696289 7.4609375 C13.59073053 12.11087079 16.10330549 15.37077119 16.56542969 22.39941406 C16.58508789 23.42260742 16.60474609 24.44580078 16.625 25.5 C16.67688477 26.62374023 16.72876953 27.74748047 16.78222656 28.90527344 C16.94225992 33.10424395 17.00948198 37.29861162 17.0625 41.5 C17.07649841 42.38792236 17.09049683 43.27584473 17.10491943 44.19067383 C17.77500363 86.76693282 15.56874784 128.27623872 8 170.25 C7.87620972 170.94019226 7.75241943 171.63038452 7.62487793 172.3414917 C4.32991708 190.55994768 0.73488838 201.64795493 -12.9375 214.5 C-14.28955125 210.44384624 -13.10214339 207.37676784 -12.0625 203.375 C-10.59574117 197.42142838 -9.20675576 191.64800652 -8.9375 185.5 C-8.8859375 184.62859375 -8.834375 183.7571875 -8.78125 182.859375 C-8.1812869 164.16052508 -13.9836991 145.49624835 -26.59765625 131.4609375 C-42.94320293 114.07591965 -68.38327459 98.87414821 -92.71386719 97.32299805 C-126.43402943 96.63889194 -152.78770208 106.05179246 -178.9375 127.5 C-179.9375 125.5 -179.9375 125.5 -179.33935547 123.2421875 C-178.99791504 122.29601562 -178.65647461 121.34984375 -178.3046875 120.375 C-177.91724365 119.29347656 -177.5297998 118.21195313 -177.13061523 117.09765625 C-176.69563721 115.91042969 -176.26065918 114.72320313 -175.8125 113.5 C-175.36527588 112.26121094 -174.91805176 111.02242187 -174.45727539 109.74609375 C-171.42671839 101.38593651 -168.25044008 93.08516129 -165.03759766 84.79370117 C-157.37494784 65.01575025 -150.10736946 45.13739975 -145.0625 24.5 C-144.75566284 23.24884399 -144.75566284 23.24884399 -144.44262695 21.97241211 C-143.45162085 17.65829713 -142.80768442 13.49861089 -142.53515625 9.078125 C-141.65815219 -3.55027547 -141.65815219 -3.55027547 -138.48876953 -7.14160156 C-134.11611563 -10.6015229 -129.10144229 -12.52729723 -123.9375 -14.5 C-122.64638807 -15.06400365 -121.35844446 -15.6353315 -120.07421875 -16.21484375 C-81.04785774 -33.37947635 -32.87480073 -27.71863752 0 0 Z " fill="#FF832F" transform="translate(659.9375,417.5)"/>
<path d="M0 0 C0.85428589 -0.00145523 1.70857178 -0.00291046 2.58874512 -0.00440979 C4.39432181 -0.00275033 6.19991258 0.00881632 8.00537109 0.02954102 C10.77111819 0.05848771 13.534948 0.05015344 16.30078125 0.03710938 C18.05469683 0.04334704 19.80860635 0.0517382 21.5625 0.0625 C22.39068237 0.05956436 23.21886475 0.05662872 24.07214355 0.05360413 C29.80153227 0.14787393 29.80153227 0.14787393 31.99839497 1.74254322 C33.62286261 3.96304828 33.6640806 5.21952392 33.67997742 7.95695496 C33.69251556 8.86980759 33.70505371 9.78266022 33.7179718 10.72317505 C33.71653671 11.72226898 33.71510162 12.72136292 33.71362305 13.75073242 C33.72891052 15.33146797 33.72891052 15.33146797 33.74450684 16.94413757 C33.77474804 20.43416585 33.78391993 23.92392017 33.79296875 27.4140625 C33.80980715 29.83117086 33.82795624 32.24827042 33.84736633 34.6653595 C33.89496334 41.03247325 33.92471004 47.39955132 33.95080566 53.76678467 C33.98056222 60.26191252 34.02710935 66.75691731 34.07226562 73.25195312 C34.15840914 85.99993321 34.22627525 98.74794312 34.28125 111.49609375 C34.71404266 111.09097565 35.14683533 110.68585754 35.59274292 110.26846313 C37.56904096 108.41921825 39.54623083 106.57092957 41.5234375 104.72265625 C42.2043042 104.08529541 42.8851709 103.44793457 43.58666992 102.79125977 C47.39931563 99.22862361 51.24830053 95.72880677 55.203125 92.32421875 C58.06639287 89.80540416 60.85910992 87.21290971 63.65625 84.62109375 C69.15294282 79.52834908 74.69827097 74.49427628 80.28125 69.49609375 C86.15927939 64.22580892 92.00625385 58.9237719 97.81982422 53.58251953 C101.76188202 49.96380899 105.73624497 46.38263673 109.71875 42.80859375 C112.58725409 40.21994372 115.4360165 37.61024229 118.28125 34.99609375 C122.73460487 30.90443268 127.21784854 26.84786429 131.71875 22.80859375 C135.5121903 19.38524519 139.27172 15.92532023 143.03125 12.46484375 C143.53395416 12.01829941 144.03665833 11.57175507 144.55459595 11.11167908 C146.38271193 9.44279187 146.38271193 9.44279187 148.32113647 7.26832581 C152.77778667 2.68527823 156.04736969 -0.06310151 162.55712891 -0.52563477 C164.87451208 -0.52422875 167.19224286 -0.47448566 169.5078125 -0.3828125 C170.73664154 -0.37007797 171.96547058 -0.35734344 173.23153687 -0.34422302 C177.12518461 -0.29416622 181.01403083 -0.18130838 184.90625 -0.06640625 C187.55852605 -0.0212246 190.21087576 0.01983347 192.86328125 0.05664062 C199.33755321 0.15543538 205.80905857 0.30569567 212.28125 0.49609375 C213.27125 3.96109375 213.27125 3.96109375 214.28125 7.49609375 C201.4648489 19.3942466 201.4648489 19.3942466 195.3046875 24.72265625 C192.76623829 26.94747467 190.27483224 29.22112694 187.78125 31.49609375 C184.01774479 34.92874136 180.21995649 38.31164385 176.375 41.65234375 C173.81705973 43.90485832 171.2994602 46.19926467 168.78125 48.49609375 C165.01774479 51.92874136 161.21995649 55.31164385 157.375 58.65234375 C153.8531253 61.7536961 150.40047978 64.93122708 146.93359375 68.09375 C144.75664004 70.06551219 142.56286326 72.00974712 140.34375 73.93359375 C136.91163455 76.91374338 133.56145903 79.97903744 130.21875 83.05859375 C125.98022327 86.96332074 121.69227569 90.78682215 117.28125 94.49609375 C117.93480469 95.14835937 118.58835937 95.800625 119.26171875 96.47265625 C121.58379326 98.79391399 123.89613337 101.12464945 126.20703125 103.45703125 C127.6692133 104.92844259 129.1314543 106.39979535 130.59375 107.87109375 C131.31498047 108.60070312 132.03621094 109.3303125 132.77929688 110.08203125 C136.85394493 114.17495127 141.02292648 118.06707442 145.39916992 121.83447266 C148.32989079 124.42190115 151.05031883 127.20111358 153.78125 129.99609375 C157.1690466 133.42647371 160.53347089 136.8189385 164.21875 139.93359375 C168.12394979 143.24182033 171.68405926 146.86123116 175.28125 150.49609375 C180.62590194 155.91104243 180.62590194 155.91104243 186.28125 160.99609375 C190.8314378 164.84021792 194.93857426 169.12576574 199.12207031 173.35864258 C202.88104761 177.14566433 206.70648053 180.76818586 210.828125 184.1640625 C212.28125 185.49609375 212.28125 185.49609375 214.28125 188.49609375 C213.29125 190.47609375 212.30125 192.45609375 211.28125 194.49609375 C194.31319974 199.00862815 173.73820777 202.32992286 157.28125 194.49609375 C135.95056964 181.65010668 118.5944489 159.54672676 102.45265198 140.93270874 C101.59944618 139.94926483 101.59944618 139.94926483 100.72900391 138.94595337 C99.68500207 137.73676557 98.64597238 136.52325487 97.61351013 135.30419922 C94.15573681 131.28138037 90.39061852 127.84705712 86.28125 124.49609375 C81.70774359 125.74341368 79.32525255 128.26582979 76.15234375 131.58203125 C73.73139405 134.05857687 71.13677201 136.28638969 68.515625 138.546875 C65.90273624 140.82630069 63.34194979 143.15821728 60.78125 145.49609375 C57.04957911 148.90015568 53.2850404 152.25463989 49.46484375 155.55859375 C47.68229966 157.14024289 45.93241559 158.74439576 44.19140625 160.37109375 C43.6492749 160.87584229 43.10714355 161.38059082 42.54858398 161.90063477 C41.4673019 162.90990639 40.38987231 163.92332378 39.31665039 164.94116211 C35.50286148 168.49609375 35.50286148 168.49609375 33.28125 168.49609375 C33.29696045 169.17712158 33.3126709 169.85814941 33.32885742 170.55981445 C33.39118222 173.64265656 33.43023258 176.72536619 33.46875 179.80859375 C33.49388672 180.88044922 33.51902344 181.95230469 33.54492188 183.05664062 C33.55458984 184.08466797 33.56425781 185.11269531 33.57421875 186.171875 C33.5899292 187.11973877 33.60563965 188.06760254 33.62182617 189.04418945 C33.28125 191.49609375 33.28125 191.49609375 32.29199219 193.30175781 C29.01745582 195.24675926 25.51955219 194.94322271 21.81640625 194.9296875 C20.98668808 194.93492935 20.15696991 194.9401712 19.30210876 194.9455719 C17.54785277 194.95199321 15.79355372 194.95065365 14.03930664 194.94213867 C11.356803 194.93363513 8.67643345 194.96237566 5.99414062 194.99414062 C4.28906314 194.99575292 2.58398188 194.99517456 0.87890625 194.9921875 C0.07775894 195.00342148 -0.72338837 195.01465546 -1.54881287 195.02622986 C-4.87481272 194.98467298 -7.17245876 194.88175172 -9.93084812 192.93444824 C-12.32675374 189.66689352 -12.27275913 186.88030256 -12.21995544 182.98071289 C-12.22548984 182.22057672 -12.23102424 181.46044054 -12.23672634 180.67726994 C-12.25034785 178.12826479 -12.23535613 175.58023627 -12.22045898 173.03125 C-12.22424163 171.20465681 -12.22974122 169.37806649 -12.23683167 167.55148315 C-12.2508107 162.58867817 -12.23959932 157.62621892 -12.22312045 152.66343307 C-12.20928574 147.47361722 -12.21572823 142.28382177 -12.21925354 137.09399414 C-12.22195691 128.37803566 -12.20846912 119.6622148 -12.18530273 110.94628906 C-12.15869222 100.86469139 -12.15694544 90.78332383 -12.1686911 80.70170307 C-12.17946456 71.00967269 -12.17328519 61.31772567 -12.15913582 51.6257019 C-12.15337228 47.49817945 -12.1534616 43.37071794 -12.15820122 39.24319458 C-12.16296815 34.38403603 -12.15288108 29.52512995 -12.13124657 24.66601944 C-12.12567466 22.88099138 -12.1252171 21.09593907 -12.13019943 19.31090927 C-12.13614052 16.87748276 -12.1236703 14.44483122 -12.10643005 12.01147461 C-12.1124401 11.30213807 -12.11845014 10.59280153 -12.12464231 9.86196995 C-12.08580999 6.85562365 -11.84569193 4.73750536 -10.43658543 2.05773926 C-7.49021652 -0.62073838 -3.77705126 -0.05123426 0 0 Z " fill="#000000" transform="translate(730.71875,277.50390625)"/>
<path d="M0 0 C0.72702118 -0.00155999 1.45404236 -0.00311998 2.20309448 -0.00472724 C4.6575519 -0.00873983 7.11194829 -0.00554662 9.56640625 -0.00241089 C11.31860389 -0.00376482 13.07080124 -0.0055447 14.82299805 -0.00772095 C19.59558809 -0.01229631 24.36815663 -0.0105053 29.14074707 -0.00734186 C34.12377991 -0.00481879 39.10681084 -0.00715565 44.08984375 -0.00872803 C52.4596388 -0.01054988 60.82942504 -0.00814301 69.19921875 -0.00338745 C78.89051011 0.0020552 88.58178044 0.00029255 98.27307129 -0.00521386 C106.57792339 -0.00974455 114.88276914 -0.01039575 123.18762207 -0.00777519 C128.15470729 -0.00621217 133.1217826 -0.00601932 138.08886719 -0.00931168 C142.75746653 -0.01218975 147.42603863 -0.01021587 152.09463501 -0.00441742 C153.81320144 -0.00308948 155.53177015 -0.00348451 157.25033569 -0.00568008 C159.58619279 -0.00839027 161.92196114 -0.0050121 164.2578125 0 C166.2234314 0.00056554 166.2234314 0.00056554 168.22875977 0.0011425 C171.12890625 0.12698364 171.12890625 0.12698364 172.12890625 1.12698364 C172.22986189 3.78154558 172.26861623 6.4095354 172.26171875 9.06448364 C172.26267548 9.85975464 172.2636322 10.65502563 172.26461792 11.47439575 C172.26529968 13.15904825 172.26344568 14.84370335 172.25927734 16.52835083 C172.253929 19.11597561 172.25922244 21.7034268 172.265625 24.29104614 C172.26496422 25.92385903 172.26368305 27.5566718 172.26171875 29.18948364 C172.26374298 29.96864136 172.26576721 30.74779907 172.26785278 31.55056763 C172.2438573 37.0120326 172.2438573 37.0120326 171.12890625 38.12698364 C169.29396139 38.22344393 167.45526038 38.24885708 165.61778259 38.24723816 C164.42159805 38.24861282 163.22541351 38.24998749 161.99298096 38.25140381 C160.65539526 38.24786421 159.31780981 38.24422939 157.98022461 38.24050903 C156.58108014 38.24022716 155.18193552 38.24038489 153.78279114 38.24095154 C149.97304166 38.24123953 146.16332339 38.23534262 142.35358119 38.22837758 C138.37639316 38.22214423 134.39920449 38.22154026 130.42201233 38.22035217 C122.88552086 38.2172388 115.34904382 38.20902534 107.81255871 38.19900268 C99.23470797 38.18784173 90.65685655 38.18233114 82.07900035 38.17730725 C64.42895913 38.16684272 46.7789377 38.14849717 29.12890625 38.12698364 C29.12890625 51.32698364 29.12890625 64.52698364 29.12890625 78.12698364 C33.30409912 78.12174683 37.47929199 78.11651001 41.78100586 78.1111145 C55.53933194 78.09458255 69.29765785 78.08346318 83.05599117 78.07517147 C91.40183454 78.07000835 99.74766852 78.06296534 108.09350586 78.05154419 C115.36509395 78.04159785 122.63667524 78.03513034 129.90826994 78.03289515 C133.76090146 78.03158795 137.61351353 78.02850156 141.46613884 78.02125359 C145.08823297 78.01449416 148.71029953 78.01236652 152.33239937 78.01387596 C154.30387853 78.01346728 156.27535466 78.00807167 158.24682617 78.00256348 C159.4093541 78.00393814 160.57188202 78.00531281 161.76963806 78.00672913 C162.78637572 78.00580733 163.80311338 78.00488554 164.85066128 78.00393581 C167.12890625 78.12698364 167.12890625 78.12698364 168.12890625 79.12698364 C168.22893914 81.26051538 168.25971673 83.39735906 168.26171875 85.53323364 C168.26300781 86.83389771 168.26429688 88.13456177 168.265625 89.47463989 C168.26353027 90.15542603 168.26143555 90.83621216 168.25927734 91.53762817 C168.25392865 93.61826879 168.25922305 95.69869353 168.265625 97.77932739 C168.26369141 99.73032349 168.26369141 99.73032349 168.26171875 101.72073364 C168.26059082 102.92407349 168.25946289 104.12741333 168.25830078 105.36721802 C168.12890625 108.12698364 168.12890625 108.12698364 167.12890625 109.12698364 C165.34463438 109.22335202 163.55650972 109.24885817 161.76963806 109.24723816 C160.60711014 109.24861282 159.44458221 109.24998749 158.24682617 109.25140381 C156.96001953 109.24780853 155.67321289 109.24421326 154.34741211 109.24050903 C152.98767601 109.24022716 151.62793975 109.24038489 150.26820374 109.24095154 C146.56588847 109.24123952 142.86360533 109.23534277 139.16129756 109.22837758 C135.29621844 109.22214407 131.43113867 109.22154025 127.5660553 109.22035217 C120.24205943 109.21723885 112.91807841 109.20902545 105.59408909 109.19900268 C97.25807177 109.18784158 88.92205376 109.1823311 80.58603084 109.17730725 C63.4336459 109.16684283 46.28128143 109.14849734 29.12890625 109.12698364 C29.12890625 122.65698364 29.12890625 136.18698364 29.12890625 150.12698364 C33.425271 150.12174683 37.72163574 150.11651001 42.14819336 150.1111145 C56.30565871 150.0945827 70.46312442 150.08346324 84.62059689 150.07517147 C93.20857674 150.0700083 101.79654748 150.0629652 110.38452148 150.05154419 C117.86706042 150.041598 125.34959276 150.03513037 132.83213812 150.03289515 C136.79655211 150.03158793 140.7609472 150.02850139 144.72535515 150.02125359 C148.45250838 150.01449439 152.17963482 150.01236647 155.90679359 150.01387596 C157.2786613 150.01359959 158.65052985 150.01159387 160.02239227 150.00777817 C161.88751588 150.00284256 163.75265369 150.00458571 165.61778259 150.00672913 C166.66401763 150.00580733 167.71025267 150.00488554 168.7881918 150.00393581 C171.12890625 150.12698364 171.12890625 150.12698364 172.12890625 151.12698364 C172.12890625 163.00698364 172.12890625 174.88698364 172.12890625 187.12698364 C112.72890625 187.12698364 53.32890625 187.12698364 -7.87109375 187.12698364 C-7.91139678 140.52324174 -7.91139678 140.52324174 -7.91992188 121.05862427 C-7.92586549 107.59581117 -7.93286888 94.13300431 -7.9465332 80.67019653 C-7.95647822 70.86719824 -7.96294674 61.06420499 -7.96518224 51.2612018 C-7.96648966 46.06717997 -7.96957746 40.87317257 -7.97682381 35.67915535 C-7.98358116 30.79635143 -7.9857113 25.91356796 -7.98420143 21.03075981 C-7.98447789 19.23317733 -7.9864847 17.4355942 -7.99029922 15.63801575 C-7.99523203 13.19482402 -7.99409358 10.75171078 -7.99134827 8.30851746 C-7.99426111 7.58771391 -7.99717395 6.86691037 -8.00017506 6.1242643 C-7.97920348 -0.72111737 -6.60423662 0.00190014 0 0 Z " fill="#FF822D" transform="translate(1938.87109375,280.8730163574219)"/>
<path d="M0 0 C16.12167438 -4.6461093 35.39829463 -7.85305602 51 0 C72.92867762 13.83478562 90.95157595 36.63935381 107.78700256 56.05155945 C108.67921729 57.06812465 108.67921729 57.06812465 109.58945656 58.10522652 C110.6984636 59.37178536 111.79629949 60.64824538 112.88072777 61.93591118 C114.47179318 63.81075265 114.47179318 63.81075265 117 66 C120.37652035 66.03970025 121.1191216 64.88924147 123.65332031 62.53295898 C124.7206127 61.38314831 125.77802949 60.22413098 126.828125 59.05859375 C127.4287677 58.4079747 128.0294104 57.75735565 128.64825439 57.08702087 C132.53961511 52.83428337 136.30346073 48.4829129 140.02148438 44.07861328 C145.78282716 37.26998282 151.68229463 30.59992652 157.75 24.0625 C158.28160484 23.48948402 158.81320969 22.91646805 159.36092377 22.32608795 C172.13791472 8.67637874 183.30841421 -2.37833916 202.91003418 -3.45451355 C213.73173038 -3.54261245 224.42298736 -2.21062965 235 0 C233.43388545 3.29815812 231.7486877 5.49720472 229.1484375 8.08203125 C228.37886719 8.84966797 227.60929687 9.61730469 226.81640625 10.40820312 C226.01074219 11.20162109 225.20507812 11.99503906 224.375 12.8125 C223.59253906 13.59431641 222.81007813 14.37613281 222.00390625 15.18164062 C218.53326271 18.62638384 215.03849991 21.97869049 211.32861328 25.16479492 C206.35225882 29.4954284 201.73440263 34.15904528 197.09375 38.84375 C195.68137068 40.2619165 194.26898839 41.68008007 192.85643768 43.09807587 C190.40212499 45.56323132 187.95115467 48.03170509 185.5 50.5 C182.57062797 53.44985631 179.64063715 56.39907839 176.70666504 59.34436035 C174.88779387 61.17068429 173.07117348 62.99925361 171.25720215 64.83044434 C166.88949385 69.21544214 162.47035605 73.45873812 157.7557373 77.47035217 C154.68944533 80.14179217 151.85256243 83.04171693 149 85.9375 C148.41605469 86.52595703 147.83210938 87.11441406 147.23046875 87.72070312 C145.81795195 89.14479793 144.4086219 90.5720525 143 92 C144.36243486 95.08841009 145.86482866 97.05847107 148.3515625 99.328125 C149.03033447 99.95533447 149.70910645 100.58254395 150.40844727 101.22875977 C151.13990967 101.89576904 151.87137207 102.56277832 152.625 103.25 C159.40204182 109.51726113 166.00611558 115.91627138 172.46923828 122.50683594 C175.49938143 125.57782955 178.56447303 128.53039103 181.83984375 131.33984375 C187.74309134 136.43072438 193.11144407 142.06767807 198.578125 147.6171875 C202.89990749 151.978741 207.27232478 156.16305528 211.93212891 160.15917969 C216.19878827 163.95736287 220.16928086 168.06782721 224.1875 172.125 C225.06341797 173.00542969 225.93933594 173.88585937 226.84179688 174.79296875 C228.4701699 176.42998363 230.09750423 178.06803296 231.72338867 179.70751953 C234.14315427 182.14415213 236.5705825 184.57299396 239 187 C198.00619608 192.77502656 198.00619608 192.77502656 184.37304688 183.67773438 C174.33306618 175.89805154 166.10285154 165.99668045 158.34350586 156.00756836 C155.52990195 152.47662551 152.434361 149.60463922 148.98756409 146.70115662 C145.78367642 143.95894833 142.84243095 140.96591264 139.875 137.97265625 C139.24263428 137.33887558 138.61026855 136.70509491 137.95874023 136.05210876 C135.97010014 134.05794022 133.98499473 132.06029647 132 130.0625 C130.63955682 128.69703255 129.27888169 127.33179614 127.91796875 125.96679688 C124.6092969 122.64719114 121.30378678 119.32446727 118 116 C113.03436079 120.16480663 108.35518777 124.49706631 103.78125 129.0859375 C102.78889343 130.07685898 102.78889343 130.07685898 101.77648926 131.08779907 C100.38703655 132.47657561 98.99882844 133.86659838 97.61181641 135.2578125 C95.50924719 137.36572929 93.40140396 139.468265 91.29296875 141.5703125 C89.9345752 142.9293671 88.57649202 144.288732 87.21875 145.6484375 C86.28875183 146.57539932 86.28875183 146.57539932 85.33996582 147.52108765 C79.10919083 153.78473246 73.45209643 160.25677034 68.3515625 167.46875 C61.06898793 176.97371362 53.40879657 186.29400129 40.99023438 188.19628906 C26.7169504 189.58674821 12.22930946 188.44834566 -2 187 C2.67749101 181.38023756 7.67121485 176.19228664 12.85107422 171.03540039 C14.15449013 169.73176544 14.15449013 169.73176544 15.48423767 168.40179443 C17.84770944 166.03889655 20.21336528 163.67822739 22.58005285 161.31855321 C25.06022926 158.84466319 27.53754038 156.36790718 30.01516724 153.89146423 C34.69849338 149.21123591 39.38436089 144.53356074 44.0711652 139.85681576 C49.41055478 134.52863564 54.74707705 129.19758763 60.08336997 123.86630642 C71.05241075 112.90769491 82.02501563 101.95265924 93 91 C92.21816849 90.21849579 91.43633698 89.43699158 90.6308136 88.63180542 C88.36668604 86.36682428 86.10939679 84.09543063 83.85546875 81.8203125 C82.29954101 80.25514685 80.7435498 78.6900443 79.1875 77.125 C78.03411133 75.95904297 78.03411133 75.95904297 76.85742188 74.76953125 C72.6679697 70.56240206 68.39682032 66.54579846 63.89575195 62.67529297 C60.78569539 59.92690815 57.90213185 56.9645168 55 54 C50.83599657 49.78762267 46.64690482 45.72738408 42.12109375 41.90234375 C38.52185634 38.67429841 35.17331789 35.1922629 31.77490234 31.75537109 C28.9524361 28.913276 26.12416268 26.15009878 23.0625 23.5625 C18.43806001 19.64951232 14.24625589 15.29636166 10.01000977 10.97290039 C7.44460695 8.3700727 4.95362727 5.96353333 2.07421875 3.69921875 C1.38972656 3.13847656 0.70523438 2.57773437 0 2 C0 1.34 0 0.68 0 0 Z " fill="#FF822D" transform="translate(2128,281)"/>
<path d="M0 0 C0.71068697 -0.00155999 1.42137394 -0.00311998 2.15359688 -0.00472724 C4.55277662 -0.00873965 6.95189392 -0.00554668 9.35107422 -0.00241089 C11.0638635 -0.00376482 12.77665249 -0.00554471 14.48944092 -0.00772095 C19.15459654 -0.01229621 23.81973015 -0.01050534 28.48488617 -0.00734186 C33.35581016 -0.00481874 38.22673219 -0.00715566 43.09765625 -0.00872803 C51.27913757 -0.01054986 59.46060989 -0.00814305 67.64208984 -0.00338745 C77.11525507 0.0020552 86.58839878 0.00029255 96.06156349 -0.00521386 C104.17958066 -0.00974459 112.29759133 -0.01039573 120.41560936 -0.00777519 C125.27091195 -0.00621219 130.1262044 -0.00601926 134.98150635 -0.00931168 C139.54504662 -0.01218981 144.10855901 -0.01021576 148.67209625 -0.00441742 C150.3519613 -0.00308951 152.03182867 -0.00348445 153.71169281 -0.00568008 C155.9950019 -0.0083904 158.27822022 -0.00501196 160.56152344 0 C162.48289627 0.00056554 162.48289627 0.00056554 164.44308472 0.0011425 C167.28076172 0.12698364 167.28076172 0.12698364 168.28076172 1.12698364 C168.38171736 3.78154558 168.4204717 6.4095354 168.41357422 9.06448364 C168.41453094 9.85975464 168.41548767 10.65502563 168.41647339 11.47439575 C168.41715515 13.15904825 168.41530114 14.84370335 168.41113281 16.52835083 C168.40578447 19.11597561 168.41107791 21.7034268 168.41748047 24.29104614 C168.41681969 25.92385903 168.41553852 27.5566718 168.41357422 29.18948364 C168.41559845 29.96864136 168.41762268 30.74779907 168.41970825 31.55056763 C168.39571276 37.0120326 168.39571276 37.0120326 167.28076172 38.12698364 C165.49648985 38.22335202 163.70836519 38.24885817 161.92149353 38.24723816 C160.75896561 38.24861282 159.59643768 38.24998749 158.39868164 38.25140381 C157.111875 38.24780853 155.82506836 38.24421326 154.49926758 38.24050903 C153.13953147 38.24022716 151.77979522 38.24038489 150.4200592 38.24095154 C146.71774394 38.24123952 143.0154608 38.23534277 139.31315303 38.22837758 C135.44807391 38.22214407 131.58299413 38.22154025 127.71791077 38.22035217 C120.3939149 38.21723885 113.06993388 38.20902545 105.74594456 38.19900268 C97.40992724 38.18784158 89.07390923 38.1823311 80.73788631 38.17730725 C63.58550137 38.16684283 46.4331369 38.14849734 29.28076172 38.12698364 C29.28076172 51.98698364 29.28076172 65.84698364 29.28076172 80.12698364 C74.16076172 80.12698364 119.04076172 80.12698364 165.28076172 80.12698364 C165.28076172 90.68698364 165.28076172 101.24698364 165.28076172 112.12698364 C164.28076172 113.12698364 164.28076172 113.12698364 162.04936886 113.25003147 C160.55744691 113.24864878 160.55744691 113.24864878 159.03538513 113.24723816 C157.89809967 113.24861282 156.76081421 113.24998749 155.58906555 113.25140381 C153.70093391 113.24601089 153.70093391 113.24601089 151.7746582 113.24050903 C150.45778015 113.24065506 149.1409021 113.24080109 147.78411865 113.24095154 C144.16237904 113.24123951 140.54067226 113.23534288 136.91894031 113.22837758 C133.13794288 113.22214394 129.35694477 113.22154024 125.57594299 113.22035217 C118.41131882 113.21723889 111.24670982 113.20902554 104.08209234 113.19900268 C94.40390541 113.18575619 84.72571435 113.18034162 75.04752064 113.17450047 C59.79192295 113.16508564 44.53635731 113.14516671 29.28076172 113.12698364 C29.28076172 137.54698364 29.28076172 161.96698364 29.28076172 187.12698364 C17.07076172 187.12698364 4.86076172 187.12698364 -7.71923828 187.12698364 C-7.74178294 162.8928656 -7.76021607 138.65875601 -7.77105045 114.42463017 C-7.77621401 103.17314848 -7.78325784 91.92167375 -7.79467773 80.67019653 C-7.80462275 70.86719824 -7.81109127 61.06420499 -7.81332678 51.2612018 C-7.81463419 46.06717997 -7.817722 40.87317257 -7.82496834 35.67915535 C-7.83172569 30.79635143 -7.83385583 25.91356796 -7.83234596 21.03075981 C-7.83262242 19.23317733 -7.83462923 17.4355942 -7.83844376 15.63801575 C-7.84337656 13.19482402 -7.84223811 10.75171078 -7.8394928 8.30851746 C-7.84240564 7.58771391 -7.84531848 6.86691037 -7.84831959 6.1242643 C-7.8275676 -0.64943867 -6.54307591 0.00192589 0 0 Z " fill="#FF822D" transform="translate(1539.71923828125,280.8730163574219)"/>
<path d="M0 0 C11.88 0 23.76 0 36 0 C36 49.5 36 99 36 150 C82.2 150 128.4 150 176 150 C176 162.21 176 174.42 176 187 C117.59 187 59.18 187 -1 187 C-1.04030303 140.3962581 -1.04030303 140.3962581 -1.04882812 120.93164062 C-1.05477174 107.46882753 -1.06177513 94.00602066 -1.07543945 80.54321289 C-1.08538447 70.7402146 -1.09185299 60.93722135 -1.09408849 51.13421816 C-1.09539591 45.94019633 -1.09848371 40.74618893 -1.10573006 35.55217171 C-1.11248741 30.66936779 -1.11461755 25.78658432 -1.11310768 20.90377617 C-1.11338414 19.10619369 -1.11539095 17.30861056 -1.11920547 15.5110321 C-1.12413828 13.06784038 -1.12299983 10.62472713 -1.12025452 8.18153381 C-1.12316736 7.46073027 -1.1260802 6.73992673 -1.12908131 5.99728066 C-1.11412121 1.11412121 -1.11412121 1.11412121 0 0 Z " fill="#FF822D" transform="translate(1734,281)"/>
<path d="M0 0 C0.85428589 -0.00145523 1.70857178 -0.00291046 2.58874512 -0.00440979 C4.39432181 -0.00275033 6.19991258 0.00881632 8.00537109 0.02954102 C10.77111819 0.05848771 13.534948 0.05015344 16.30078125 0.03710938 C18.05469683 0.04334704 19.80860635 0.0517382 21.5625 0.0625 C22.39068237 0.05956436 23.21886475 0.05662872 24.07214355 0.05360413 C29.71498335 0.14644988 29.71498335 0.14644988 31.99908543 1.55677891 C33.95390133 4.51350036 33.69769415 7.50173438 33.66893005 10.92918396 C33.67431559 11.69254926 33.67970113 12.45591457 33.68524987 13.24241215 C33.69959247 15.80817362 33.69241038 18.37342375 33.68530273 20.93920898 C33.69100303 22.77550676 33.69796596 24.61180099 33.70610046 26.4480896 C33.7240849 31.44187376 33.72285356 36.43548272 33.71715808 41.42928958 C33.71407379 45.59448618 33.72015021 49.75964875 33.72619683 53.92484051 C33.74025786 63.74915733 33.7386677 73.57338722 33.72729492 83.39770508 C33.71581227 93.54122866 33.72988829 103.6844879 33.7566914 113.82797664 C33.77882555 122.5295328 33.78549093 131.23100584 33.77961498 139.93258816 C33.77623871 145.13286704 33.77870486 150.33297645 33.79586601 155.53323174 C33.81129667 160.42278165 33.80742286 165.31193905 33.78856087 170.20147324 C33.78486418 171.99779623 33.78801475 173.79414806 33.79844666 175.59044456 C33.811585 178.03942649 33.80017393 180.48709523 33.78245544 182.9360199 C33.79686295 184.00688431 33.79686295 184.00688431 33.81156152 185.09938234 C33.76190401 188.42619117 33.47979039 190.22613881 31.486619 192.93624973 C28.1687722 195.2829425 24.85376513 195.06819958 20.9375 195.02734375 C20.13139282 195.03117065 19.32528564 195.03499756 18.49475098 195.03894043 C16.79352568 195.04165765 15.09225847 195.03430965 13.39111328 195.01757812 C10.78974104 194.99616365 8.19113028 195.01738394 5.58984375 195.04296875 C3.93488975 195.04032544 2.27993746 195.03520038 0.625 195.02734375 C-0.15113647 195.03544067 -0.92727295 195.0435376 -1.72692871 195.05187988 C-4.99797372 194.99519215 -7.2181265 194.85081578 -9.924119 192.93345642 C-12.3289302 189.66738275 -12.27280108 186.88340061 -12.21995544 182.98071289 C-12.22548984 182.22057672 -12.23102424 181.46044054 -12.23672634 180.67726994 C-12.25034785 178.12826479 -12.23535613 175.58023627 -12.22045898 173.03125 C-12.22424163 171.20465681 -12.22974122 169.37806649 -12.23683167 167.55148315 C-12.2508107 162.58867817 -12.23959932 157.62621892 -12.22312045 152.66343307 C-12.20928574 147.47361722 -12.21572823 142.28382177 -12.21925354 137.09399414 C-12.22195691 128.37803566 -12.20846912 119.6622148 -12.18530273 110.94628906 C-12.15869222 100.86469139 -12.15694544 90.78332383 -12.1686911 80.70170307 C-12.17946456 71.00967269 -12.17328519 61.31772567 -12.15913582 51.6257019 C-12.15337228 47.49817945 -12.1534616 43.37071794 -12.15820122 39.24319458 C-12.16296815 34.38403603 -12.15288108 29.52512995 -12.13124657 24.66601944 C-12.12567466 22.88099138 -12.1252171 21.09593907 -12.13019943 19.31090927 C-12.13614052 16.87748276 -12.1236703 14.44483122 -12.10643005 12.01147461 C-12.1124401 11.30213807 -12.11845014 10.59280153 -12.12464231 9.86196995 C-12.08580999 6.85562365 -11.84569193 4.73750536 -10.43658543 2.05773926 C-7.49021652 -0.62073838 -3.77705126 -0.05123426 0 0 Z " fill="#000000" transform="translate(977.71875,277.50390625)"/>
<path d="M0 0 C13.82023824 12.12408833 29.98745679 30.60035962 32.96484375 49.43359375 C32.67997423 51.85266429 32.29600755 54.26063349 31.85546875 56.65625 C31.72799255 57.35697128 31.60051636 58.05769257 31.46917725 58.77964783 C31.19730224 60.26390862 30.92134444 61.74742656 30.64160156 63.23022461 C30.22120314 65.46232861 29.81459518 67.69659637 29.41015625 69.93164062 C26.17736276 87.56233163 22.34735788 98.85403047 8.96484375 111.43359375 C7.6127925 107.37743999 8.80020036 104.31036159 9.83984375 100.30859375 C11.30660258 94.35502213 12.69558799 88.58160027 12.96484375 82.43359375 C13.01640625 81.5621875 13.06796875 80.69078125 13.12109375 79.79296875 C13.72105685 61.09411883 7.91864465 42.4298421 -4.6953125 28.39453125 C-21.04085918 11.0095134 -46.48093084 -4.19225804 -70.81152344 -5.7434082 C-104.53168568 -6.42751431 -130.88535833 2.98538621 -157.03515625 24.43359375 C-158.03515625 22.43359375 -158.03515625 22.43359375 -157.6171875 20.58935547 C-150.60607178 0.30783479 -141.32226211 -8.06788755 -122.27148438 -17.55371094 C-81.80092385 -36.85472852 -33.73199781 -28.52242285 0 0 Z " fill="#FF822E" transform="translate(638.03515625,520.56640625)"/>
<path d="M0 0 C1.47434995 1.28583953 2.94780584 2.57451146 4.36499023 3.9230957 C5.66012875 5.12621661 7.01240241 6.26812295 8.38696289 7.37963867 C13.15236085 11.51520663 15.58937703 14.49908325 16.37890625 20.86328125 C16.50376532 23.17777412 16.58502064 25.49498653 16.625 27.8125 C16.67978516 28.95912109 16.73457031 30.10574219 16.79101562 31.28710938 C17.11351961 38.68794754 17.11563935 46.09338676 17.0625 53.5 C14.13951315 50.62296967 11.58092669 47.67615856 9.0625 44.4375 C-8.85894205 22.52380176 -35.69759932 8.02669813 -63.8671875 4.81640625 C-90.33284169 2.53846495 -118.5682996 6.9650959 -140.30078125 23.2734375 C-141.9375 24.5 -141.9375 24.5 -143.9375 24.5 C-143.87183838 23.89486572 -143.80617676 23.28973145 -143.73852539 22.66625977 C-143.27690891 18.26076838 -142.89864923 13.8924397 -142.74609375 9.46484375 C-142.00371905 -3.11865331 -142.00371905 -3.11865331 -138.47119141 -7.18994141 C-134.11481433 -10.6275365 -129.07708937 -12.53660041 -123.9375 -14.5 C-122.64638807 -15.06400365 -121.35844446 -15.6353315 -120.07421875 -16.21484375 C-81.04785774 -33.37947635 -32.87480073 -27.71863752 0 0 Z " fill="#FF832F" transform="translate(659.9375,417.5)"/>
<path d="M0 0 C6.27 0 12.54 0 19 0 C21.97 12.54 24.94 25.08 28 38 C28.33 27.77 28.66 17.54 29 7 C27.68 7 26.36 7 25 7 C25 4.69 25 2.38 25 0 C30.28 0 35.56 0 41 0 C41 2.31 41 4.62 41 7 C39.68 7 38.36 7 37 7 C37 21.85 37 36.7 37 52 C32.38 52 27.76 52 23 52 C21.89550038 47.89280256 20.79222414 43.78531342 19.69189453 39.67700195 C19.31823517 38.2832622 18.94390206 36.88970288 18.56884766 35.49633789 C18.02583793 33.47851376 17.48536003 31.46002493 16.9453125 29.44140625 C16.62062988 28.23170166 16.29594727 27.02199707 15.96142578 25.77563477 C14.88270322 21.53936144 13.94830261 17.26736174 13 13 C12.67 23.56 12.34 34.12 12 45 C13.32 45 14.64 45 16 45 C16 47.31 16 49.62 16 52 C10.72 52 5.44 52 0 52 C0 49.69 0 47.38 0 45 C0.99 45 1.98 45 3 45 C3 32.46 3 19.92 3 7 C2.01 7 1.02 7 0 7 C0 4.69 0 2.38 0 0 Z M11 6 C12 8 12 8 12 8 Z M29 43 C30 46 30 46 30 46 Z " fill="#625F5E" transform="translate(2314,614)"/>
<path d="M0 0 C6.27 0 12.54 0 19 0 C21.97 12.54 24.94 25.08 28 38 C28.33 27.77 28.66 17.54 29 7 C27.68 7 26.36 7 25 7 C25 4.69 25 2.38 25 0 C30.28 0 35.56 0 41 0 C41 2.31 41 4.62 41 7 C39.68 7 38.36 7 37 7 C37 21.85 37 36.7 37 52 C32.38 52 27.76 52 23 52 C21.89550038 47.89280256 20.79222414 43.78531342 19.69189453 39.67700195 C19.31823517 38.2832622 18.94390206 36.88970288 18.56884766 35.49633789 C18.02583793 33.47851376 17.48536003 31.46002493 16.9453125 29.44140625 C16.62062988 28.23170166 16.29594727 27.02199707 15.96142578 25.77563477 C14.88270322 21.53936144 13.94830261 17.26736174 13 13 C12.67 23.56 12.34 34.12 12 45 C13.32 45 14.64 45 16 45 C16 47.31 16 49.62 16 52 C10.72 52 5.44 52 0 52 C0 49.69 0 47.38 0 45 C0.99 45 1.98 45 3 45 C3 32.46 3 19.92 3 7 C2.01 7 1.02 7 0 7 C0 4.69 0 2.38 0 0 Z M11 6 C12 8 12 8 12 8 Z M29 43 C30 46 30 46 30 46 Z " fill="#625F5E" transform="translate(1608,614)"/>
<path d="M0 0 C6.27 0 12.54 0 19 0 C21.97 12.54 24.94 25.08 28 38 C28.33 27.77 28.66 17.54 29 7 C27.68 7 26.36 7 25 7 C25 4.69 25 2.38 25 0 C30.28 0 35.56 0 41 0 C41 2.31 41 4.62 41 7 C39.68 7 38.36 7 37 7 C37 21.85 37 36.7 37 52 C32.38 52 27.76 52 23 52 C21.89550038 47.89280256 20.79222414 43.78531342 19.69189453 39.67700195 C19.31823517 38.2832622 18.94390206 36.88970288 18.56884766 35.49633789 C18.02583793 33.47851376 17.48536003 31.46002493 16.9453125 29.44140625 C16.62062988 28.23170166 16.29594727 27.02199707 15.96142578 25.77563477 C14.88270322 21.53936144 13.94830261 17.26736174 13 13 C12.67 23.56 12.34 34.12 12 45 C13.32 45 14.64 45 16 45 C16 47.31 16 49.62 16 52 C10.72 52 5.44 52 0 52 C0 49.69 0 47.38 0 45 C0.99 45 1.98 45 3 45 C3 32.46 3 19.92 3 7 C2.01 7 1.02 7 0 7 C0 4.69 0 2.38 0 0 Z M11 6 C12 8 12 8 12 8 Z M29 43 C30 46 30 46 30 46 Z " fill="#625F5E" transform="translate(875,614)"/>
<path d="M0 0 C4.18736668 -0.08760181 8.37449531 -0.14059435 12.5625 -0.1875 C13.74392578 -0.21263672 14.92535156 -0.23777344 16.14257812 -0.26367188 C22.49327748 -0.3170391 27.49590983 -0.34729079 33 3 C35.79536731 7.68900323 36.59029481 11.58896422 36 17 C34.39265334 21.17910132 32.81927559 23.62941515 29 26 C29.598125 26.474375 30.19625 26.94875 30.8125 27.4375 C34.73086175 32.02758091 36.05010672 38.11066164 37 44 C37.99 44.33 38.98 44.66 40 45 C40 47.31 40 49.62 40 52 C35.71 52 31.42 52 27 52 C26.73445313 50.73542969 26.46890625 49.47085938 26.1953125 48.16796875 C25.83887921 46.50774 25.4820898 44.84758767 25.125 43.1875 C24.95097656 42.35412109 24.77695313 41.52074219 24.59765625 40.66210938 C24.42363281 39.85966797 24.24960938 39.05722656 24.0703125 38.23046875 C23.91320801 37.49207764 23.75610352 36.75368652 23.59423828 35.99291992 C23.0205516 33.71252193 23.0205516 33.71252193 21 31 C18.69 30.67 16.38 30.34 14 30 C14 34.95 14 39.9 14 45 C14.99 45 15.98 45 17 45 C17 47.31 17 49.62 17 52 C11.39 52 5.78 52 0 52 C0 49.69 0 47.38 0 45 C0.99 45 1.98 45 3 45 C3 32.46 3 19.92 3 7 C2.01 7 1.02 7 0 7 C0 4.69 0 2.38 0 0 Z M14 7 C14 12.28 14 17.56 14 23 C20.63019987 23.64715023 20.63019987 23.64715023 24 21 C24.65666517 18.94734388 24.65666517 18.94734388 24.8125 16.625 C24.90144531 15.85414063 24.99039062 15.08328125 25.08203125 14.2890625 C24.9878425 11.6607479 24.41213908 10.20313107 23 8 C20.32917961 6.47825081 20.32917961 6.47825081 14 7 Z " fill="#625F5E" transform="translate(1127,614)"/>
<path d="M0 0 C3.85402129 -0.08770383 7.70778291 -0.14062735 11.5625 -0.1875 C12.64853516 -0.21263672 13.73457031 -0.23777344 14.85351562 -0.26367188 C21.90997591 -0.3280165 27.61922979 -0.31867443 32.9140625 4.87890625 C34.90306002 8.76389062 34.51614312 12.75386263 34 17 C32.38727433 20.68623011 31.369675 21.75355 28 24 C28.94875 24.53625 29.8975 25.0725 30.875 25.625 C34.54169526 28.4116884 35.2504928 29.5029568 36 34 C35.98280458 39.35637237 35.87730505 45.00152917 32 49 C25.17365641 52.33894118 18.38829224 52.3708318 10.9375 52.1875 C9.35291992 52.16719727 9.35291992 52.16719727 7.73632812 52.14648438 C5.15700191 52.1114709 2.57878506 52.06236675 0 52 C0 49.69 0 47.38 0 45 C0.99 45 1.98 45 3 45 C3 32.46 3 19.92 3 7 C2.01 7 1.02 7 0 7 C0 4.69 0 2.38 0 0 Z M14 7 C14 11.62 14 16.24 14 21 C19.76887492 21.5547002 19.76887492 21.5547002 23 19 C23.47790518 16.63715136 23.47790518 16.63715136 23.375 14 C23.38273437 13.113125 23.39046875 12.22625 23.3984375 11.3125 C23.26695313 10.549375 23.13546875 9.78625 23 9 C19.76887492 6.4452998 19.76887492 6.4452998 14 7 Z M14 28 C14 33.61 14 39.22 14 45 C20.3247549 45.54901961 20.3247549 45.54901961 22.875 44 C24.65744829 40.83120304 25.13971029 37.58356895 25 34 C23.86225672 31.56936663 22.88186104 29.88186104 21 28 C18.69 28 16.38 28 14 28 Z " fill="#625F5E" transform="translate(1113,523)"/>
<path d="M0 0 C5.94 0 11.88 0 18 0 C18 2.31 18 4.62 18 7 C17.01 7.495 17.01 7.495 16 8 C17.65 11.3 19.3 14.6 21 18 C22.65 14.37 24.3 10.74 26 7 C25.34 7 24.68 7 24 7 C24 4.69 24 2.38 24 0 C29.28 0 34.56 0 40 0 C40 2.31 40 4.62 40 7 C39.01 7.33 38.02 7.66 37 8 C33.06089873 12.70150797 29.23909835 17.88390424 28 24 C28.81522688 29.41961893 31.88934688 33.99036214 34.95166016 38.43164062 C36 40 36 40 37.10546875 42.390625 C37.96492093 44.36362515 37.96492093 44.36362515 41 45 C41 47.31 41 49.62 41 52 C35.06 52 29.12 52 23 52 C23 49.69 23 47.38 23 45 C23.99 44.505 23.99 44.505 25 44 C22.525 38.06 22.525 38.06 20 32 C17.69 36.29 15.38 40.58 13 45 C13.99 45 14.98 45 16 45 C16 47.31 16 49.62 16 52 C10.72 52 5.44 52 0 52 C0 45 0 45 1.35424805 43.28637695 C1.89734619 42.86187256 2.44044434 42.43736816 3 42 C4.75746291 39.48642349 6.27202607 36.83826872 7.8125 34.1875 C8.24498047 33.48818359 8.67746094 32.78886719 9.12304688 32.06835938 C11.63316311 27.76191239 11.63316311 27.76191239 11.4765625 22.8828125 C10.74566406 21.45582031 10.74566406 21.45582031 10 20 C9.19755859 18.42798828 9.19755859 18.42798828 8.37890625 16.82421875 C7.77949219 15.78910156 7.18007813 14.75398437 6.5625 13.6875 C5.96566406 12.63949219 5.36882813 11.59148438 4.75390625 10.51171875 C3.18263408 7.7293395 3.18263408 7.7293395 0 7 C0 4.69 0 2.38 0 0 Z " fill="#625F5E" transform="translate(962,523)"/>
<path d="M0 0 C5.59036919 6.88045439 5.24583 13.07918569 5.29516602 21.60424805 C5.30664839 22.98423547 5.32704102 24.3641798 5.35668945 25.74389648 C5.53100271 33.8626094 5.62794153 40.14692387 1 47 C-4.16352987 51.00173565 -9.58282798 51.62776683 -16 51 C-20.64144562 50.00780691 -23.33147676 48.78851459 -26.4375 45.125 C-29.77935855 38.4412829 -29.18345823 31.44061075 -29.1875 24.125 C-29.19974609 22.96613281 -29.21199219 21.80726563 -29.22460938 20.61328125 C-29.24827156 6.81033945 -29.24827156 6.81033945 -24.75 1.1875 C-17.58570575 -4.51137043 -7.80258009 -4.67116768 0 0 Z M-15.8125 5.25 C-19.42013282 10.56651152 -18.18442723 17.73560979 -18.1875 23.875 C-18.19974609 25.15503906 -18.21199219 26.43507813 -18.22460938 27.75390625 C-18.22654297 28.98753906 -18.22847656 30.22117187 -18.23046875 31.4921875 C-18.23457764 32.61995605 -18.23868652 33.74772461 -18.24291992 34.90966797 C-17.99555389 38.05656169 -17.50505003 40.23000397 -16 43 C-13.08995097 44.08223366 -13.08995097 44.08223366 -10 44 C-6.75150023 42.27773504 -6.75150023 42.27773504 -6 39 C-5.79523893 34.72754844 -5.81419805 30.45278145 -5.81469727 26.17602539 C-5.81251146 24.07352435 -5.79434455 21.97154883 -5.77539062 19.86914062 C-5.77245624 18.52864762 -5.77047175 17.18815213 -5.76953125 15.84765625 C-5.76542236 14.63086182 -5.76131348 13.41406738 -5.75708008 12.16040039 C-5.98896209 9.14360381 -6.24869761 7.44246161 -8 5 C-12.0726251 3.64593788 -12.0726251 3.64593788 -15.8125 5.25 Z " fill="#625F5E" transform="translate(2261,616)"/>
<path d="M0 0 C5.59036919 6.88045439 5.24583 13.07918569 5.29516602 21.60424805 C5.30664839 22.98423547 5.32704102 24.3641798 5.35668945 25.74389648 C5.53100271 33.8626094 5.62794153 40.14692387 1 47 C-4.16352987 51.00173565 -9.58282798 51.62776683 -16 51 C-20.64144562 50.00780691 -23.33147676 48.78851459 -26.4375 45.125 C-29.77935855 38.4412829 -29.18345823 31.44061075 -29.1875 24.125 C-29.19974609 22.96613281 -29.21199219 21.80726563 -29.22460938 20.61328125 C-29.24827156 6.81033945 -29.24827156 6.81033945 -24.75 1.1875 C-17.58570575 -4.51137043 -7.80258009 -4.67116768 0 0 Z M-15.8125 5.25 C-19.42013282 10.56651152 -18.18442723 17.73560979 -18.1875 23.875 C-18.19974609 25.15503906 -18.21199219 26.43507813 -18.22460938 27.75390625 C-18.22654297 28.98753906 -18.22847656 30.22117187 -18.23046875 31.4921875 C-18.23457764 32.61995605 -18.23868652 33.74772461 -18.24291992 34.90966797 C-17.99555389 38.05656169 -17.50505003 40.23000397 -16 43 C-13.08995097 44.08223366 -13.08995097 44.08223366 -10 44 C-6.75150023 42.27773504 -6.75150023 42.27773504 -6 39 C-5.79523893 34.72754844 -5.81419805 30.45278145 -5.81469727 26.17602539 C-5.81251146 24.07352435 -5.79434455 21.97154883 -5.77539062 19.86914062 C-5.77245624 18.52864762 -5.77047175 17.18815213 -5.76953125 15.84765625 C-5.76542236 14.63086182 -5.76131348 13.41406738 -5.75708008 12.16040039 C-5.98896209 9.14360381 -6.24869761 7.44246161 -8 5 C-12.0726251 3.64593788 -12.0726251 3.64593788 -15.8125 5.25 Z " fill="#625F5E" transform="translate(1865,616)"/>
<path d="M0 0 C5.59036919 6.88045439 5.24583 13.07918569 5.29516602 21.60424805 C5.30664839 22.98423547 5.32704102 24.3641798 5.35668945 25.74389648 C5.53100271 33.8626094 5.62794153 40.14692387 1 47 C-4.16352987 51.00173565 -9.58282798 51.62776683 -16 51 C-20.64144562 50.00780691 -23.33147676 48.78851459 -26.4375 45.125 C-29.77935855 38.4412829 -29.18345823 31.44061075 -29.1875 24.125 C-29.19974609 22.96613281 -29.21199219 21.80726563 -29.22460938 20.61328125 C-29.24827156 6.81033945 -29.24827156 6.81033945 -24.75 1.1875 C-17.58570575 -4.51137043 -7.80258009 -4.67116768 0 0 Z M-15.8125 5.25 C-19.42013282 10.56651152 -18.18442723 17.73560979 -18.1875 23.875 C-18.19974609 25.15503906 -18.21199219 26.43507813 -18.22460938 27.75390625 C-18.22654297 28.98753906 -18.22847656 30.22117187 -18.23046875 31.4921875 C-18.23457764 32.61995605 -18.23868652 33.74772461 -18.24291992 34.90966797 C-17.99555389 38.05656169 -17.50505003 40.23000397 -16 43 C-13.08995097 44.08223366 -13.08995097 44.08223366 -10 44 C-6.75150023 42.27773504 -6.75150023 42.27773504 -6 39 C-5.79523893 34.72754844 -5.81419805 30.45278145 -5.81469727 26.17602539 C-5.81251146 24.07352435 -5.79434455 21.97154883 -5.77539062 19.86914062 C-5.77245624 18.52864762 -5.77047175 17.18815213 -5.76953125 15.84765625 C-5.76542236 14.63086182 -5.76131348 13.41406738 -5.75708008 12.16040039 C-5.98896209 9.14360381 -6.24869761 7.44246161 -8 5 C-12.0726251 3.64593788 -12.0726251 3.64593788 -15.8125 5.25 Z " fill="#625F5E" transform="translate(1555,616)"/>
<path d="M0 0 C5.59036919 6.88045439 5.24583 13.07918569 5.29516602 21.60424805 C5.30664839 22.98423547 5.32704102 24.3641798 5.35668945 25.74389648 C5.53100271 33.8626094 5.62794153 40.14692387 1 47 C-4.16352987 51.00173565 -9.58282798 51.62776683 -16 51 C-20.64144562 50.00780691 -23.33147676 48.78851459 -26.4375 45.125 C-29.77935855 38.4412829 -29.18345823 31.44061075 -29.1875 24.125 C-29.19974609 22.96613281 -29.21199219 21.80726563 -29.22460938 20.61328125 C-29.24827156 6.81033945 -29.24827156 6.81033945 -24.75 1.1875 C-17.58570575 -4.51137043 -7.80258009 -4.67116768 0 0 Z M-15.8125 5.25 C-19.42013282 10.56651152 -18.18442723 17.73560979 -18.1875 23.875 C-18.19974609 25.15503906 -18.21199219 26.43507813 -18.22460938 27.75390625 C-18.22654297 28.98753906 -18.22847656 30.22117187 -18.23046875 31.4921875 C-18.23457764 32.61995605 -18.23868652 33.74772461 -18.24291992 34.90966797 C-17.99555389 38.05656169 -17.50505003 40.23000397 -16 43 C-13.08995097 44.08223366 -13.08995097 44.08223366 -10 44 C-6.75150023 42.27773504 -6.75150023 42.27773504 -6 39 C-5.79523893 34.72754844 -5.81419805 30.45278145 -5.81469727 26.17602539 C-5.81251146 24.07352435 -5.79434455 21.97154883 -5.77539062 19.86914062 C-5.77245624 18.52864762 -5.77047175 17.18815213 -5.76953125 15.84765625 C-5.76542236 14.63086182 -5.76131348 13.41406738 -5.75708008 12.16040039 C-5.98896209 9.14360381 -6.24869761 7.44246161 -8 5 C-12.0726251 3.64593788 -12.0726251 3.64593788 -15.8125 5.25 Z " fill="#625F5E" transform="translate(822,616)"/>
<path d="M0 0 C5.28 0 10.56 0 16 0 C16 2.31 16 4.62 16 7 C15.34 7 14.68 7 14 7 C14.11794522 12.10881026 14.24217047 17.21741364 14.37231445 22.32592773 C14.41572573 24.06514288 14.45739612 25.80440235 14.49731445 27.54370117 C14.55486768 30.03838488 14.6186042 32.5328441 14.68359375 35.02734375 C14.70030624 35.80963852 14.71701874 36.59193329 14.73423767 37.39793396 C14.50648731 40.99871781 14.50648731 40.99871781 16 44 C18.31 44 20.62 44 23 44 C23.33 31.79 23.66 19.58 24 7 C23.34 7 22.68 7 22 7 C22 4.69 22 2.38 22 0 C26.95 0 31.9 0 37 0 C37 2.31 37 4.62 37 7 C36.01 7 35.02 7 34 7 C34.01571045 7.99330322 34.0314209 8.98660645 34.04760742 10.01000977 C34.10220199 13.72053818 34.13645656 17.43103158 34.16479492 21.1418457 C34.17981466 22.74314356 34.20023663 24.34440075 34.22631836 25.94555664 C34.26300438 28.25677571 34.27979435 30.56744756 34.29296875 32.87890625 C34.30845261 33.58648575 34.32393646 34.29406525 34.33988953 35.02308655 C34.34160151 40.16202922 33.33033592 43.52072738 31 48 C26.73622681 52.15444567 23.97758921 52.87032202 18.1875 53.25 C13.87766958 53.1617167 10.74955699 52.23531282 7 50 C3.23924216 44.67282162 2.43273396 40.8698047 2.609375 34.44140625 C2.61503479 33.65225327 2.62069458 32.86310028 2.62652588 32.05003357 C2.64874314 29.55354626 2.69890781 27.05854625 2.75 24.5625 C2.77008412 22.86004691 2.78833153 21.15757111 2.8046875 19.45507812 C2.84855928 15.30282086 2.91748092 11.15166172 3 7 C2.01 7 1.02 7 0 7 C0 4.69 0 2.38 0 0 Z " fill="#625F5E" transform="translate(1998,614)"/>
<path d="M0 0 C5.28 0 10.56 0 16 0 C16 2.31 16 4.62 16 7 C15.34 7 14.68 7 14 7 C14.11794522 12.10881026 14.24217047 17.21741364 14.37231445 22.32592773 C14.41572573 24.06514288 14.45739612 25.80440235 14.49731445 27.54370117 C14.55486768 30.03838488 14.6186042 32.5328441 14.68359375 35.02734375 C14.70030624 35.80963852 14.71701874 36.59193329 14.73423767 37.39793396 C14.50648731 40.99871781 14.50648731 40.99871781 16 44 C18.31 44 20.62 44 23 44 C23.33 31.79 23.66 19.58 24 7 C23.34 7 22.68 7 22 7 C22 4.69 22 2.38 22 0 C26.95 0 31.9 0 37 0 C37 2.31 37 4.62 37 7 C36.01 7 35.02 7 34 7 C34.01571045 7.99330322 34.0314209 8.98660645 34.04760742 10.01000977 C34.10220199 13.72053818 34.13645656 17.43103158 34.16479492 21.1418457 C34.17981466 22.74314356 34.20023663 24.34440075 34.22631836 25.94555664 C34.26300438 28.25677571 34.27979435 30.56744756 34.29296875 32.87890625 C34.30845261 33.58648575 34.32393646 34.29406525 34.33988953 35.02308655 C34.34160151 40.16202922 33.33033592 43.52072738 31 48 C26.73622681 52.15444567 23.97758921 52.87032202 18.1875 53.25 C13.87766958 53.1617167 10.74955699 52.23531282 7 50 C3.23924216 44.67282162 2.43273396 40.8698047 2.609375 34.44140625 C2.61503479 33.65225327 2.62069458 32.86310028 2.62652588 32.05003357 C2.64874314 29.55354626 2.69890781 27.05854625 2.75 24.5625 C2.77008412 22.86004691 2.78833153 21.15757111 2.8046875 19.45507812 C2.84855928 15.30282086 2.91748092 11.15166172 3 7 C2.01 7 1.02 7 0 7 C0 4.69 0 2.38 0 0 Z " fill="#625F5E" transform="translate(1213,614)"/>
<path d="M0 0 C11.22 0 22.44 0 34 0 C34 4.95 34 9.9 34 15 C31.03 15 28.06 15 25 15 C25 12.36 25 9.72 25 7 C21.37 7 17.74 7 14 7 C14 11.62 14 16.24 14 21 C17.63 21 21.26 21 25 21 C25 23.97 25 26.94 25 30 C21.37 30 17.74 30 14 30 C14 34.95 14 39.9 14 45 C17.63 45 21.26 45 25 45 C25 42.03 25 39.06 25 36 C27.97 36 30.94 36 34 36 C34 41.28 34 46.56 34 52 C22.78 52 11.56 52 0 52 C0 49.69 0 47.38 0 45 C0.99 45 1.98 45 3 45 C3 32.46 3 19.92 3 7 C2.01 7 1.02 7 0 7 C0 4.69 0 2.38 0 0 Z " fill="#625F5E" transform="translate(1278,523)"/>
<path d="M0 0 C11.22 0 22.44 0 34 0 C34 4.95 34 9.9 34 15 C31.03 15 28.06 15 25 15 C25 12.36 25 9.72 25 7 C21.37 7 17.74 7 14 7 C14 11.62 14 16.24 14 21 C17.63 21 21.26 21 25 21 C25 23.97 25 26.94 25 30 C21.37 30 17.74 30 14 30 C14 34.95 14 39.9 14 45 C17.63 45 21.26 45 25 45 C25 42.03 25 39.06 25 36 C27.97 36 30.94 36 34 36 C34 41.28 34 46.56 34 52 C22.78 52 11.56 52 0 52 C0 49.69 0 47.38 0 45 C0.99 45 1.98 45 3 45 C3 32.46 3 19.92 3 7 C2.01 7 1.02 7 0 7 C0 4.69 0 2.38 0 0 Z " fill="#625F5E" transform="translate(881,523)"/>
<path d="M0 0 C0.66 0.66 1.32 1.32 2 2 C2.33 1.34 2.66 0.68 3 0 C5.97 0 8.94 0 12 0 C12 5.28 12 10.56 12 16 C9.03 16 6.06 16 3 16 C2.34 13.03 1.68 10.06 1 7 C-1.64 7 -4.28 7 -7 7 C-7.67038093 10.24488794 -7.67038093 10.24488794 -7 14 C-4.66192429 16.47811671 -1.86116001 18.1752806 1 20 C10.60829493 26.61866359 10.60829493 26.61866359 13 32 C13.77272044 38.52815541 13.85398037 43.49294077 10 49 C7.93532144 51.40879165 7.11005341 51.96331553 4 53 C-1.03274337 53.37279581 -3.90672968 53.00975759 -8 50 C-8.33 49.67 -8.66 49.34 -9 49 C-9.33 49.99 -9.66 50.98 -10 52 C-12.97 52 -15.94 52 -19 52 C-19 46.06 -19 40.12 -19 34 C-15.7 34 -12.4 34 -9 34 C-8.51171875 36.31119792 -8.0234375 38.62239583 -7.53515625 40.93359375 C-7.19247006 42.97661204 -7.19247006 42.97661204 -6 44 C-3.66702567 44.04092937 -1.33294775 44.04241723 1 44 C1.59705216 38.31840445 1.59705216 38.31840445 -0.875 33.4375 C-3.55213814 31.34933225 -6.26571013 29.42098566 -9.0625 27.5 C-16.32671555 22.42262728 -16.32671555 22.42262728 -18 19 C-18.75413453 13.31992292 -18.74944802 8.60992537 -16.3125 3.375 C-11.46115211 -1.6074654 -6.5237004 -1.58927083 0 0 Z " fill="#625F5E" transform="translate(1776,614)"/>
<path d="M0 0 C0.66 0.66 1.32 1.32 2 2 C2.33 1.34 2.66 0.68 3 0 C5.97 0 8.94 0 12 0 C12 5.28 12 10.56 12 16 C9.03 16 6.06 16 3 16 C2.34 13.03 1.68 10.06 1 7 C-1.64 7 -4.28 7 -7 7 C-7.67038093 10.24488794 -7.67038093 10.24488794 -7 14 C-4.66192429 16.47811671 -1.86116001 18.1752806 1 20 C10.60829493 26.61866359 10.60829493 26.61866359 13 32 C13.77272044 38.52815541 13.85398037 43.49294077 10 49 C7.93532144 51.40879165 7.11005341 51.96331553 4 53 C-1.03274337 53.37279581 -3.90672968 53.00975759 -8 50 C-8.33 49.67 -8.66 49.34 -9 49 C-9.33 49.99 -9.66 50.98 -10 52 C-12.97 52 -15.94 52 -19 52 C-19 46.06 -19 40.12 -19 34 C-15.7 34 -12.4 34 -9 34 C-8.51171875 36.31119792 -8.0234375 38.62239583 -7.53515625 40.93359375 C-7.19247006 42.97661204 -7.19247006 42.97661204 -6 44 C-3.66702567 44.04092937 -1.33294775 44.04241723 1 44 C1.59705216 38.31840445 1.59705216 38.31840445 -0.875 33.4375 C-3.55213814 31.34933225 -6.26571013 29.42098566 -9.0625 27.5 C-16.32671555 22.42262728 -16.32671555 22.42262728 -18 19 C-18.75413453 13.31992292 -18.74944802 8.60992537 -16.3125 3.375 C-11.46115211 -1.6074654 -6.5237004 -1.58927083 0 0 Z " fill="#625F5E" transform="translate(983,614)"/>
<path d="M0 0 C1.16015625 0.11794922 1.16015625 0.11794922 2.34375 0.23828125 C4.5 0.6875 4.5 0.6875 7.5 2.6875 C7.83 2.0275 8.16 1.3675 8.5 0.6875 C11.47 0.6875 14.44 0.6875 17.5 0.6875 C17.5 7.2875 17.5 13.8875 17.5 20.6875 C14.2 20.6875 10.9 20.6875 7.5 20.6875 C7.36722656 19.90503906 7.23445313 19.12257813 7.09765625 18.31640625 C6.92105469 17.30449219 6.74445313 16.29257812 6.5625 15.25 C6.38847656 14.24066406 6.21445313 13.23132813 6.03515625 12.19140625 C5.75248903 9.7587562 5.75248903 9.7587562 4.5 8.6875 C2.83382885 8.64686168 1.16611905 8.644779 -0.5 8.6875 C-2.69884566 12.23796976 -2.75765366 15.15209535 -2.765625 19.28125 C-2.76820312 20.55871094 -2.77078125 21.83617187 -2.7734375 23.15234375 C-2.76924805 23.81476074 -2.76505859 24.47717773 -2.76074219 25.15966797 C-2.75003459 27.18096943 -2.76065396 29.20138225 -2.7734375 31.22265625 C-2.77085938 32.50011719 -2.76828125 33.77757812 -2.765625 35.09375 C-2.76336914 36.26228516 -2.76111328 37.43082031 -2.75878906 38.63476562 C-2.51111988 41.55632737 -2.02614218 43.22324262 -0.5 45.6875 C1.15 45.6875 2.8 45.6875 4.5 45.6875 C6.62046792 42.15338679 7.03199289 38.74356165 7.5 34.6875 C10.8 34.6875 14.1 34.6875 17.5 34.6875 C17.93792633 45.63565825 17.93792633 45.63565825 14.5 49.6875 C10.08172056 53.67820401 5.57123689 53.99315357 -0.1875 53.8984375 C-3.81190854 53.56783267 -6.37498374 52.52574486 -9.5 50.6875 C-15.58548022 43.16072183 -14.71348362 35.74004848 -14.75 26.4375 C-14.770625 25.13941406 -14.79125 23.84132813 -14.8125 22.50390625 C-14.84094705 15.52726789 -14.65957186 9.96829941 -11.5 3.6875 C-7.98494464 0.28229012 -4.79193162 -0.53509903 0 0 Z " fill="#625F5E" transform="translate(1311.5,613.3125)"/>
<path d="M0 0 C1.16015625 0.11794922 1.16015625 0.11794922 2.34375 0.23828125 C4.5 0.6875 4.5 0.6875 7.5 2.6875 C7.83 2.0275 8.16 1.3675 8.5 0.6875 C11.47 0.6875 14.44 0.6875 17.5 0.6875 C17.5 7.2875 17.5 13.8875 17.5 20.6875 C14.2 20.6875 10.9 20.6875 7.5 20.6875 C7.36722656 19.90503906 7.23445312 19.12257813 7.09765625 18.31640625 C6.92105469 17.30449219 6.74445312 16.29257812 6.5625 15.25 C6.38847656 14.24066406 6.21445312 13.23132813 6.03515625 12.19140625 C5.75248903 9.7587562 5.75248903 9.7587562 4.5 8.6875 C2.83382885 8.64686168 1.16611905 8.644779 -0.5 8.6875 C-2.69884566 12.23796976 -2.75765366 15.15209535 -2.765625 19.28125 C-2.76820313 20.55871094 -2.77078125 21.83617187 -2.7734375 23.15234375 C-2.76924805 23.81476074 -2.76505859 24.47717773 -2.76074219 25.15966797 C-2.75003459 27.18096943 -2.76065396 29.20138225 -2.7734375 31.22265625 C-2.77085937 32.50011719 -2.76828125 33.77757812 -2.765625 35.09375 C-2.76336914 36.26228516 -2.76111328 37.43082031 -2.75878906 38.63476562 C-2.51111988 41.55632737 -2.02614218 43.22324262 -0.5 45.6875 C1.15 45.6875 2.8 45.6875 4.5 45.6875 C6.62046792 42.15338679 7.03199289 38.74356165 7.5 34.6875 C10.8 34.6875 14.1 34.6875 17.5 34.6875 C17.93792633 45.63565825 17.93792633 45.63565825 14.5 49.6875 C10.08172056 53.67820401 5.57123689 53.99315357 -0.1875 53.8984375 C-3.81190854 53.56783267 -6.37498374 52.52574486 -9.5 50.6875 C-15.58548022 43.16072183 -14.71348362 35.74004848 -14.75 26.4375 C-14.770625 25.13941406 -14.79125 23.84132813 -14.8125 22.50390625 C-14.84094705 15.52726789 -14.65957186 9.96829941 -11.5 3.6875 C-7.98494464 0.28229012 -4.79193162 -0.53509903 0 0 Z " fill="#625F5E" transform="translate(728.5,613.3125)"/>
<path d="M0 0 C13.2 0 26.4 0 40 0 C40 5.61 40 11.22 40 17 C37.03 17 34.06 17 31 17 C31 13.7 31 10.4 31 7 C29.35 7 27.7 7 26 7 C26 19.54 26 32.08 26 45 C27.65 45 29.3 45 31 45 C31 47.31 31 49.62 31 52 C24.07 52 17.14 52 10 52 C10 49.69 10 47.38 10 45 C11.65 45 13.3 45 15 45 C15 32.46 15 19.92 15 7 C13.02 7 11.04 7 9 7 C9 10.3 9 13.6 9 17 C6.03 17 3.06 17 0 17 C0 11.39 0 5.78 0 0 Z " fill="#625F5E" transform="translate(2081,614)"/>
<path d="M0 0 C13.2 0 26.4 0 40 0 C40 5.61 40 11.22 40 17 C37.03 17 34.06 17 31 17 C31 13.7 31 10.4 31 7 C29.35 7 27.7 7 26 7 C26 19.54 26 32.08 26 45 C27.65 45 29.3 45 31 45 C31 47.31 31 49.62 31 52 C24.07 52 17.14 52 10 52 C10 49.69 10 47.38 10 45 C11.65 45 13.3 45 15 45 C15 32.46 15 19.92 15 7 C13.02 7 11.04 7 9 7 C9 10.3 9 13.6 9 17 C6.03 17 3.06 17 0 17 C0 11.39 0 5.78 0 0 Z " fill="#625F5E" transform="translate(1375,614)"/>
<path d="M0 0 C13.2 0 26.4 0 40 0 C40 5.61 40 11.22 40 17 C37.03 17 34.06 17 31 17 C31 13.7 31 10.4 31 7 C29.35 7 27.7 7 26 7 C26 19.54 26 32.08 26 45 C27.65 45 29.3 45 31 45 C31 47.31 31 49.62 31 52 C24.07 52 17.14 52 10 52 C10 49.69 10 47.38 10 45 C11.65 45 13.3 45 15 45 C15 32.46 15 19.92 15 7 C13.02 7 11.04 7 9 7 C9 10.3 9 13.6 9 17 C6.03 17 3.06 17 0 17 C0 11.39 0 5.78 0 0 Z " fill="#625F5E" transform="translate(1041,614)"/>
<path d="M0 0 C10.89 0 21.78 0 33 0 C33 5.28 33 10.56 33 16 C30.03 16 27.06 16 24 16 C24 13.03 24 10.06 24 7 C20.7 7 17.4 7 14 7 C14 11.95 14 16.9 14 22 C17.96 22 21.92 22 26 22 C26 24.97 26 27.94 26 31 C22.04 31 18.08 31 14 31 C14 35.62 14 40.24 14 45 C15.65 45 17.3 45 19 45 C19 47.31 19 49.62 19 52 C12.73 52 6.46 52 0 52 C0 49.69 0 47.38 0 45 C0.99 45 1.98 45 3 45 C3 32.46 3 19.92 3 7 C2.01 7 1.02 7 0 7 C0 4.69 0 2.38 0 0 Z " fill="#625F5E" transform="translate(721,523)"/>
<path d="M0 0 C6.27 0 12.54 0 19 0 C19 2.31 19 4.62 19 7 C17.35 7 15.7 7 14 7 C14 19.54 14 32.08 14 45 C16.97 45 19.94 45 23 45 C23 41.7 23 38.4 23 35 C26.63 35 30.26 35 34 35 C34 40.61 34 46.22 34 52 C22.78 52 11.56 52 0 52 C0 49.69 0 47.38 0 45 C0.99 45 1.98 45 3 45 C3 32.46 3 19.92 3 7 C2.01 7 1.02 7 0 7 C0 4.69 0 2.38 0 0 Z " fill="#625F5E" transform="translate(1918,614)"/>
<path d="M0 0 C6.27 0 12.54 0 19 0 C19 2.31 19 4.62 19 7 C17.35 7 15.7 7 14 7 C14 19.54 14 32.08 14 45 C16.97 45 19.94 45 23 45 C23 41.7 23 38.4 23 35 C26.63 35 30.26 35 34 35 C34 40.61 34 46.22 34 52 C22.78 52 11.56 52 0 52 C0 49.69 0 47.38 0 45 C0.99 45 1.98 45 3 45 C3 32.46 3 19.92 3 7 C2.01 7 1.02 7 0 7 C0 4.69 0 2.38 0 0 Z " fill="#625F5E" transform="translate(1197,523)"/>
<path d="M0 0 C6.27 0 12.54 0 19 0 C19 2.31 19 4.62 19 7 C17.35 7 15.7 7 14 7 C14 19.54 14 32.08 14 45 C16.97 45 19.94 45 23 45 C23 41.7 23 38.4 23 35 C26.63 35 30.26 35 34 35 C34 40.61 34 46.22 34 52 C22.78 52 11.56 52 0 52 C0 49.69 0 47.38 0 45 C0.99 45 1.98 45 3 45 C3 32.46 3 19.92 3 7 C2.01 7 1.02 7 0 7 C0 4.69 0 2.38 0 0 Z " fill="#625F5E" transform="translate(800,523)"/>
<path d="M0 0 C12.60581569 11.13125677 21.70127277 23.72535375 29.66552734 38.47070312 C30.24302734 39.51871094 30.82052734 40.56671875 31.41552734 41.64648438 C33.02621966 45.28564233 32.50662057 47.64755207 31.66552734 51.47070312 C29.81024018 48.68777238 28.50110274 45.92352475 27.15454102 42.8737793 C14.23065811 13.92185696 -8.9193663 -6.15565621 -38.33447266 -17.52929688 C-63.57339697 -26.89541792 -94.53043879 -26.28107082 -119.33447266 -15.52929688 C-129.40894937 -10.8775733 -138.60404704 -5.3833788 -147.33447266 1.47070312 C-148.66589829 2.47324168 -149.99857586 3.47413023 -151.33447266 4.47070312 C-150.48373305 -0.13230519 -150.01423093 -1.91779113 -146.45556641 -5.11914062 C-145.24347889 -5.92591386 -144.01427571 -6.70737451 -142.77197266 -7.46679688 C-142.10866943 -7.88791748 -141.44536621 -8.30903809 -140.76196289 -8.74291992 C-96.80979861 -35.93918732 -39.81882093 -34.19287368 0 0 Z " fill="#FFF4ED" transform="translate(639.33447265625,517.529296875)"/>
<path d="M0 0 C5.94 0 11.88 0 18 0 C18 2.31 18 4.62 18 7 C16.68 7 15.36 7 14 7 C14 19.54 14 32.08 14 45 C15.32 45 16.64 45 18 45 C18 47.31 18 49.62 18 52 C12.06 52 6.12 52 0 52 C0 49.69 0 47.38 0 45 C0.99 45 1.98 45 3 45 C3 32.46 3 19.92 3 7 C2.01 7 1.02 7 0 7 C0 4.69 0 2.38 0 0 Z " fill="#625F5E" transform="translate(2167,614)"/>
<path d="M0 0 C5.94 0 11.88 0 18 0 C18 2.31 18 4.62 18 7 C16.68 7 15.36 7 14 7 C14 19.54 14 32.08 14 45 C15.32 45 16.64 45 18 45 C18 47.31 18 49.62 18 52 C12.06 52 6.12 52 0 52 C0 49.69 0 47.38 0 45 C0.99 45 1.98 45 3 45 C3 32.46 3 19.92 3 7 C2.01 7 1.02 7 0 7 C0 4.69 0 2.38 0 0 Z " fill="#625F5E" transform="translate(1461,614)"/>
<path d="M0 0 C5.94 0 11.88 0 18 0 C18 2.31 18 4.62 18 7 C16.68 7 15.36 7 14 7 C14 19.54 14 32.08 14 45 C15.32 45 16.64 45 18 45 C18 47.31 18 49.62 18 52 C12.06 52 6.12 52 0 52 C0 49.69 0 47.38 0 45 C0.99 45 1.98 45 3 45 C3 32.46 3 19.92 3 7 C2.01 7 1.02 7 0 7 C0 4.69 0 2.38 0 0 Z " fill="#625F5E" transform="translate(1048,523)"/>
<path d="M0 0 C8.99533171 7.72439348 16.85421701 15.95421708 23.35546875 25.921875 C24.02964844 26.94796875 24.70382812 27.9740625 25.3984375 29.03125 C31.36118753 38.60021412 31.36118753 38.60021412 30.35546875 44.921875 C28.07540889 42.0400398 26.34607382 39.12422698 24.66796875 35.859375 C10.00742202 8.76610973 -14.35720921 -8.79761669 -43.20703125 -18.390625 C-71.6918136 -26.53412719 -102.6514835 -22.50861353 -128.55297852 -8.60717773 C-134.61801684 -5.23427017 -140.20181543 -1.39232955 -145.64453125 2.921875 C-145.97453125 1.931875 -146.30453125 0.941875 -146.64453125 -0.078125 C-109.57441006 -39.24911229 -38.66327064 -32.1725977 0 0 Z " fill="#FFF4EC" transform="translate(644.64453125,494.078125)"/>
<path d="M0 0 C10.02748421 8.61071455 18.01196116 17.90661361 25.35546875 28.921875 C25.48046875 32.109375 25.48046875 32.109375 25.35546875 34.921875 C22.69351644 31.65147645 20.2066482 28.31568056 17.79296875 24.859375 C0.67829507 1.29891513 -24.42066272 -15.11279655 -53.1171875 -20.76171875 C-85.7209993 -25.81792486 -116.92511936 -18.48966356 -143.64453125 0.921875 C-142.77370487 -2.77651413 -142.11063699 -4.68480233 -139.16796875 -7.16796875 C-95.18240896 -32.98083448 -40.39843013 -33.61646385 0 0 Z " fill="#FFF4ED" transform="translate(650.64453125,470.078125)"/>
<path d="M0 0 C18.21727024 16.15073871 18.21727024 16.15073871 18.99121094 23.42578125 C18.83652344 24.44671875 18.83652344 24.44671875 18.67871094 25.48828125 C15.72401378 22.6457043 13.19378758 19.6601317 10.67871094 16.42578125 C-7.24273111 -5.48791699 -34.08138839 -19.98502062 -62.25097656 -23.1953125 C-88.71663075 -25.4732538 -116.95208866 -21.04662285 -138.68457031 -4.73828125 C-140.32128906 -3.51171875 -140.32128906 -3.51171875 -142.32128906 -3.51171875 C-141.95090588 -5.98270368 -141.62186475 -7.2271636 -139.78222656 -8.96875 C-96.84505393 -36.86987155 -38.9571174 -33.43687809 0 0 Z " fill="#FFF4ED" transform="translate(658.3212890625,445.51171875)"/>
<path d="M0 0 C2.0526507 1.80247309 4.05677941 3.64403988 6.0625 5.5 C6.98804688 6.33273437 7.91359375 7.16546875 8.8671875 8.0234375 C15.00199708 13.77601596 15.00199708 13.77601596 15.29296875 17.2578125 C15.17888672 18.36769531 15.17888672 18.36769531 15.0625 19.5 C14.4025 18.84 13.7425 18.18 13.0625 17.5 C12.59972656 17.04109375 12.13695312 16.5821875 11.66015625 16.109375 C10.5481855 14.98924799 9.45291157 13.85240028 8.37109375 12.703125 C-4.86104464 -1.10912802 -21.13981331 -10.07753161 -38.9375 -16.5 C-39.80890625 -16.81839844 -40.6803125 -17.13679688 -41.578125 -17.46484375 C-65.4634539 -25.4134383 -96.51172819 -23.41118248 -119.15234375 -12.42529297 C-122.89608709 -10.5194877 -126.5862842 -8.52919062 -130.2578125 -6.48828125 C-133.08140879 -4.92529615 -135.89799426 -3.6058124 -138.9375 -2.5 C-138.8203125 -4.2578125 -138.8203125 -4.2578125 -137.9375 -6.5 C-98.08460398 -35.70968937 -37.14717472 -31.4095697 0 0 Z " fill="#FFF3EC" transform="translate(659.9375,417.5)"/>
<path d="M0 0 C0.66 0.33 1.32 0.66 2 1 C0.49392117 5.10088936 -1.96188878 6.53509554 -5.625 8.75 C-7.12933594 9.67039062 -7.12933594 9.67039062 -8.6640625 10.609375 C-9.43492187 11.06828125 -10.20578125 11.5271875 -11 12 C-9.78134964 7.21914091 -8.61196865 5.16718119 -4.375 2.625 C-3.55773437 2.12226563 -2.74046875 1.61953125 -1.8984375 1.1015625 C-1.27195312 0.73804688 -0.64546875 0.37453125 0 0 Z " fill="#FFEDE0" transform="translate(518,459)"/>
<path d="M0 0 C0.66 0.33 1.32 0.66 2 1 C0.5741914 4.45195767 -1.09746334 6.1014256 -4.125 8.25 C-4.84945313 8.77078125 -5.57390625 9.2915625 -6.3203125 9.828125 C-6.87460937 10.21484375 -7.42890625 10.6015625 -8 11 C-7.1216227 6.43243804 -6.614517 4.47932326 -2.875 1.5625 C-1.92625 1.046875 -0.9775 0.53125 0 0 Z " fill="#FFEADD" transform="translate(496,511)"/>
<path d="" fill="#FF822D" transform="translate(0,0)"/>
<path d="" fill="#625F5E" transform="translate(0,0)"/>
</svg>
